<svg id="svg" version="1.1" xmlns="http://www.w3.org/2000/svg" xmlns:xlink="http://www.w3.org/1999/xlink" width="400" height="277.037037037037" viewBox="0, 0, 400,277.037037037037"><g id="svgg"><path id="path0" d="M50.831 19.751 C 50.696 19.944,50.650 27.093,50.728 35.897 L 50.866 51.698 63.895 51.698 L 76.923 51.698 76.992 46.985 C 77.030 44.394,76.961 42.119,76.839 41.930 C 76.674 41.674,74.923 41.578,69.979 41.554 C 60.819 41.510,61.422 41.983,61.582 34.963 C 61.708 29.414,60.939 29.914,69.549 29.787 C 73.384 29.730,76.643 29.609,76.792 29.517 C 77.203 29.263,77.144 20.152,76.729 19.737 C 76.238 19.245,51.174 19.259,50.831 19.751 M83.216 19.737 C 82.631 20.321,82.751 39.462,83.341 39.952 C 83.699 40.250,85.246 40.338,90.422 40.359 C 97.263 40.385,97.470 40.421,97.611 41.580 C 97.779 42.957,97.733 42.966,90.406 42.966 C 82.152 42.966,82.883 42.528,82.883 47.475 C 82.883 53.002,81.300 52.391,95.612 52.391 L 107.767 52.391 108.215 51.708 C 108.936 50.607,108.887 32.167,108.161 31.510 C 107.730 31.120,106.692 31.046,100.763 30.982 L 93.867 30.908 93.628 29.983 C 93.190 28.293,93.270 28.274,100.814 28.274 C 109.376 28.274,108.663 28.678,108.663 23.839 C 108.663 20.305,108.617 19.954,108.126 19.691 C 107.314 19.256,83.653 19.300,83.216 19.737 M114.379 19.831 C 114.149 20.431,114.457 39.727,114.700 39.953 C 114.810 40.055,117.956 40.203,121.691 40.281 C 129.564 40.446,129.687 40.475,129.726 42.159 C 129.740 42.779,127.849 42.966,121.573 42.966 C 116.266 42.966,114.763 43.045,114.520 43.338 C 114.189 43.737,114.285 51.003,114.633 51.906 C 114.956 52.743,140.146 52.644,140.412 51.805 C 140.646 51.066,140.639 31.708,140.404 31.328 C 140.294 31.150,137.709 31.046,133.370 31.046 C 125.998 31.046,125.748 31.001,125.508 29.616 C 125.298 28.397,126.024 28.274,133.469 28.274 C 137.752 28.274,140.294 28.171,140.405 27.993 C 140.646 27.602,140.664 20.106,140.425 19.718 C 140.087 19.172,114.590 19.282,114.379 19.831 M232.880 19.782 C 232.653 20.055,232.586 24.513,232.638 35.929 L 232.710 51.698 237.524 51.774 C 243.607 51.870,243.105 52.338,243.105 46.570 C 243.105 40.764,242.701 41.192,248.292 41.075 C 253.789 40.961,253.361 40.510,253.361 46.410 C 253.361 49.743,253.461 51.271,253.694 51.504 C 254.102 51.912,263.259 51.967,263.895 51.565 C 264.255 51.337,264.314 49.311,264.334 36.254 C 264.348 27.978,264.443 20.946,264.546 20.628 C 264.870 19.633,263.770 19.404,258.670 19.404 C 252.886 19.404,253.361 18.919,253.361 24.831 C 253.361 30.576,253.841 30.092,248.154 30.083 C 242.674 30.075,243.114 30.548,243.109 24.657 C 243.106 21.463,243.004 19.968,242.772 19.737 C 242.267 19.232,233.302 19.272,232.880 19.782 M269.901 19.589 C 269.493 19.996,269.696 29.299,270.120 29.650 C 270.407 29.889,271.687 29.959,274.544 29.892 C 280.117 29.763,279.566 28.526,279.512 41.039 C 279.470 50.744,279.495 51.304,279.979 51.563 C 280.741 51.971,289.758 51.919,290.173 51.504 C 290.420 51.257,290.507 48.514,290.510 40.901 C 290.512 35.252,290.609 30.482,290.724 30.301 C 290.861 30.085,292.320 29.909,294.938 29.793 C 297.141 29.695,299.165 29.496,299.437 29.351 C 300.223 28.930,300.185 20.114,299.395 19.691 C 298.797 19.371,270.217 19.272,269.901 19.589 M305.530 19.737 C 305.050 20.217,305.050 51.024,305.530 51.504 C 305.997 51.971,314.932 51.971,315.398 51.504 C 315.640 51.263,315.731 49.247,315.731 44.174 C 315.731 35.833,316.047 35.319,318.521 39.640 C 318.826 40.173,319.415 41.120,319.829 41.744 C 320.243 42.368,320.854 43.304,321.186 43.823 C 323.229 47.019,323.893 47.566,324.332 46.412 C 324.480 46.021,324.883 45.303,325.226 44.818 C 325.928 43.827,326.340 43.191,327.035 42.030 C 327.297 41.592,327.776 40.906,328.098 40.506 C 328.420 40.106,328.765 39.517,328.866 39.197 C 328.966 38.877,329.539 38.220,330.139 37.738 L 331.231 36.860 331.562 37.479 C 331.806 37.935,331.849 39.821,331.726 44.649 C 331.605 49.411,331.647 51.286,331.878 51.518 C 332.333 51.972,341.554 51.960,342.010 51.504 C 342.490 51.024,342.490 20.217,342.010 19.737 C 341.631 19.358,330.700 19.246,330.700 19.621 C 330.700 19.856,329.107 22.448,328.291 23.541 C 328.015 23.910,327.662 24.472,327.507 24.788 C 326.813 26.201,325.359 28.495,324.595 29.383 L 323.759 30.353 322.796 29.270 C 321.853 28.208,321.302 27.313,320.222 25.087 C 319.926 24.477,319.418 23.740,319.093 23.450 C 318.769 23.159,318.503 22.798,318.503 22.647 C 318.503 22.496,318.060 21.704,317.518 20.888 L 316.533 19.404 311.198 19.404 C 307.418 19.404,305.766 19.501,305.530 19.737 M348.496 19.737 C 348.144 20.089,347.986 50.496,348.332 51.398 C 348.553 51.973,373.870 52.076,374.442 51.504 C 374.817 51.129,374.920 42.515,374.557 41.944 C 374.406 41.707,372.269 41.590,366.915 41.528 C 359.933 41.447,359.460 41.409,359.090 40.903 C 358.768 40.462,358.697 38.539,358.697 30.217 C 358.697 22.694,358.611 19.983,358.365 19.737 C 357.898 19.270,348.963 19.270,348.496 19.737 M10.545 68.594 C 10.361 68.815,10.279 69.221,10.363 69.495 C 10.446 69.769,10.647 72.595,10.808 75.775 C 10.969 78.955,11.236 81.809,11.401 82.118 C 11.566 82.427,11.813 84.440,11.950 86.593 C 12.525 95.640,12.722 98.063,12.988 99.376 C 13.142 100.139,13.409 103.569,13.581 106.999 C 13.768 110.744,14.055 113.790,14.299 114.622 C 14.545 115.459,14.817 118.369,14.986 121.968 C 15.140 125.246,15.397 128.739,15.557 129.730 C 15.718 130.721,15.950 132.171,16.073 132.953 C 16.197 133.735,16.385 136.417,16.492 138.913 C 16.686 143.419,16.935 145.908,17.434 148.302 C 17.682 149.492,17.799 151.220,18.171 159.164 C 18.262 161.097,18.516 163.343,18.737 164.153 C 18.964 164.988,19.260 168.153,19.419 171.448 C 19.574 174.650,19.938 178.891,20.228 180.873 C 20.518 182.855,20.899 187.268,21.075 190.680 C 21.278 194.625,21.541 197.300,21.798 198.026 C 22.047 198.732,22.306 201.233,22.476 204.574 C 22.752 209.984,23.037 212.925,23.538 215.523 C 23.686 216.286,23.937 219.841,24.096 223.423 C 24.305 228.099,24.513 230.290,24.834 231.185 C 25.159 232.091,25.337 234.026,25.485 238.256 C 25.743 245.629,25.643 245.446,29.707 246.004 C 30.419 246.101,31.143 246.352,31.316 246.561 C 31.490 246.770,32.529 247.086,33.626 247.264 C 34.723 247.442,36.057 247.808,36.590 248.078 C 37.124 248.347,38.309 248.657,39.224 248.766 C 40.139 248.875,41.361 249.207,41.941 249.503 C 42.521 249.799,43.801 250.155,44.786 250.295 C 45.771 250.434,46.981 250.791,47.474 251.088 C 47.968 251.385,49.086 251.706,49.960 251.803 C 50.834 251.900,52.019 252.219,52.594 252.512 C 53.168 252.805,54.387 253.129,55.301 253.232 C 56.216 253.335,57.358 253.644,57.838 253.919 C 58.318 254.194,59.576 254.553,60.634 254.717 C 61.691 254.881,63.107 255.254,63.780 255.547 C 64.453 255.839,65.690 256.166,66.528 256.273 C 67.367 256.381,68.427 256.692,68.884 256.965 C 69.342 257.238,70.527 257.548,71.518 257.655 C 72.509 257.761,73.729 258.084,74.230 258.373 C 74.730 258.661,75.976 259.031,76.997 259.194 C 78.019 259.357,79.056 259.673,79.303 259.897 C 79.550 260.120,80.786 260.484,82.051 260.707 C 83.316 260.929,84.551 261.291,84.795 261.510 C 85.039 261.730,86.151 262.035,87.267 262.189 C 88.382 262.342,89.593 262.664,89.959 262.904 C 90.324 263.143,91.495 263.463,92.560 263.614 C 93.625 263.765,95.011 264.157,95.639 264.484 L 96.782 265.080 98.079 264.489 C 98.793 264.165,100.229 263.769,101.271 263.610 C 102.313 263.452,103.452 263.135,103.802 262.905 C 104.152 262.676,105.232 262.366,106.204 262.217 C 107.175 262.068,108.406 261.711,108.940 261.425 C 109.473 261.138,110.596 260.818,111.435 260.713 C 112.273 260.607,113.484 260.274,114.126 259.971 C 114.769 259.668,116.030 259.316,116.931 259.189 C 117.831 259.062,118.967 258.751,119.455 258.499 C 119.944 258.246,121.272 257.862,122.407 257.645 C 123.542 257.427,124.749 257.072,125.090 256.854 C 125.431 256.637,126.623 256.321,127.738 256.152 C 128.853 255.983,130.038 255.667,130.372 255.448 C 130.705 255.229,131.895 254.908,133.015 254.735 C 134.135 254.561,135.445 254.191,135.925 253.912 C 136.405 253.633,137.547 253.315,138.462 253.204 C 139.376 253.093,140.561 252.781,141.095 252.510 C 141.629 252.239,142.981 251.881,144.101 251.713 C 145.221 251.545,146.322 251.223,146.547 250.998 C 146.772 250.773,147.040 250.588,147.144 250.587 C 148.170 250.576,151.021 249.912,151.841 249.493 C 152.410 249.203,153.624 248.879,154.539 248.775 C 155.454 248.670,156.577 248.360,157.034 248.085 C 157.491 247.810,158.856 247.448,160.066 247.281 C 161.277 247.113,162.481 246.783,162.742 246.546 C 163.004 246.310,164.089 245.987,165.153 245.829 C 167.982 245.409,168.087 245.100,168.674 235.472 C 168.898 231.808,169.267 227.816,169.493 226.602 C 169.720 225.387,170.033 221.649,170.189 218.295 C 170.358 214.636,170.641 211.547,170.895 210.571 C 171.149 209.599,171.482 205.976,171.724 201.562 C 171.969 197.085,172.288 193.633,172.534 192.793 C 172.786 191.934,173.049 188.982,173.227 185.031 C 173.385 181.520,173.693 177.908,173.912 176.992 C 174.131 176.078,174.448 172.507,174.618 169.057 C 174.787 165.608,175.098 162.115,175.308 161.296 C 175.518 160.476,175.833 157.124,176.008 153.846 C 176.183 150.568,176.565 146.078,176.858 143.867 C 177.150 141.656,177.468 137.665,177.565 134.997 C 177.682 131.787,177.909 129.489,178.236 128.205 C 178.572 126.885,178.790 124.580,178.919 120.998 C 179.123 115.336,179.483 111.519,179.907 110.528 C 180.052 110.188,180.357 106.528,180.584 102.394 C 180.811 98.260,181.137 94.518,181.309 94.078 C 181.480 93.638,181.787 90.149,181.990 86.324 C 182.202 82.329,182.536 78.672,182.775 77.731 C 183.249 75.860,183.668 69.691,183.382 68.791 L 183.192 68.191 97.035 68.191 C 22.055 68.191,10.835 68.243,10.545 68.594 M151.926 103.911 L 152.562 104.425 152.116 106.475 C 151.850 107.702,151.560 111.138,151.395 115.038 C 151.202 119.590,150.989 121.928,150.688 122.800 C 150.380 123.689,150.179 126.013,149.988 130.891 C 149.774 136.367,149.627 137.914,149.256 138.633 C 148.879 139.361,148.748 140.845,148.563 146.510 C 148.376 152.233,148.238 153.783,147.798 155.123 C 147.357 156.464,147.228 157.917,147.080 163.225 C 146.932 168.510,146.802 169.981,146.371 171.264 C 145.942 172.541,145.795 174.182,145.584 180.056 C 145.365 186.147,145.246 187.426,144.823 188.233 C 144.398 189.044,144.289 190.252,144.106 196.173 C 143.935 201.699,143.772 203.644,143.324 205.497 C 142.935 207.104,142.752 208.824,142.739 210.987 C 142.711 215.494,142.007 216.476,138.585 216.790 C 137.326 216.905,136.485 217.145,136.001 217.526 C 135.528 217.898,134.641 218.158,133.407 218.288 C 132.362 218.398,131.146 218.721,130.661 219.018 C 130.182 219.310,128.894 219.663,127.798 219.800 C 126.626 219.948,125.593 220.242,125.290 220.517 C 124.969 220.808,123.914 221.087,122.482 221.260 C 121.068 221.431,120.075 221.692,119.893 221.940 C 119.729 222.165,118.743 222.469,117.665 222.629 C 116.601 222.786,115.258 223.161,114.680 223.461 C 114.103 223.761,112.715 224.110,111.597 224.235 C 110.240 224.387,109.300 224.658,108.767 225.051 C 108.250 225.432,107.337 225.703,106.168 225.823 C 105.113 225.932,104.078 226.220,103.673 226.517 C 103.265 226.816,102.113 227.135,100.876 227.291 C 99.718 227.437,98.407 227.766,97.961 228.022 C 97.191 228.463,97.088 228.458,95.889 227.912 C 95.195 227.596,93.949 227.253,93.121 227.150 C 92.293 227.048,91.116 226.732,90.506 226.449 C 89.896 226.166,88.685 225.811,87.815 225.661 C 86.945 225.510,85.760 225.147,85.181 224.854 C 84.603 224.561,83.444 224.233,82.606 224.126 C 81.767 224.019,80.640 223.708,80.100 223.435 C 79.560 223.162,78.188 222.786,77.051 222.600 C 75.913 222.413,74.713 222.090,74.383 221.881 C 74.053 221.672,72.930 221.366,71.888 221.200 C 70.846 221.034,69.705 220.710,69.354 220.481 C 69.002 220.252,67.630 219.875,66.305 219.644 C 64.979 219.413,63.708 219.058,63.479 218.855 C 63.250 218.652,62.065 218.338,60.845 218.157 C 59.626 217.976,58.418 217.641,58.163 217.413 C 57.907 217.184,56.770 216.868,55.637 216.709 C 52.415 216.256,51.615 215.430,51.403 212.335 C 51.315 211.040,51.072 209.543,50.863 209.009 C 50.620 208.387,50.374 205.676,50.177 201.459 C 50.009 197.841,49.691 193.941,49.472 192.795 C 48.744 188.990,48.407 181.903,48.918 181.124 L 49.354 180.457 60.000 180.457 C 72.547 180.457,71.375 180.075,71.638 184.255 C 71.741 185.901,72.006 188.060,72.226 189.051 C 72.446 190.042,72.729 192.442,72.855 194.385 C 73.124 198.520,72.912 198.163,75.290 198.499 C 76.330 198.647,77.458 198.949,77.797 199.170 C 78.135 199.392,79.324 199.713,80.440 199.883 C 81.555 200.053,82.841 200.416,83.299 200.688 C 83.756 200.961,84.879 201.271,85.793 201.378 C 86.708 201.484,87.971 201.797,88.600 202.072 C 89.229 202.347,90.659 202.726,91.777 202.915 C 92.896 203.103,94.286 203.505,94.866 203.808 C 96.120 204.462,98.130 204.295,98.956 203.470 C 99.305 203.121,100.063 202.906,101.361 202.790 C 102.450 202.692,103.712 202.375,104.326 202.047 C 104.948 201.713,106.235 201.394,107.404 201.282 C 108.729 201.156,109.576 200.928,109.889 200.615 C 110.420 200.084,110.854 199.968,113.201 199.734 C 114.171 199.637,115.099 199.359,115.498 199.044 C 115.911 198.720,116.865 198.443,117.981 198.323 C 121.089 197.990,121.062 198.061,121.224 189.736 C 121.329 184.372,121.411 183.480,121.902 182.390 C 122.381 181.325,122.474 180.427,122.560 176.022 L 122.661 170.894 85.457 170.755 C 51.078 170.627,48.217 170.581,47.786 170.151 C 47.412 169.776,47.274 168.821,47.086 165.300 C 46.958 162.888,46.722 160.478,46.562 159.945 C 45.866 157.622,45.472 148.818,46.033 148.142 C 46.310 147.809,49.188 147.748,64.691 147.748 C 105.803 147.747,124.123 147.454,124.845 146.784 C 125.472 146.203,125.491 146.033,125.642 139.692 C 125.773 134.214,125.891 132.858,126.394 131.049 C 126.722 129.869,126.951 128.372,126.904 127.723 L 126.819 126.542 85.793 126.403 C 63.229 126.327,44.611 126.163,44.419 126.039 C 43.292 125.310,43.045 123.886,42.686 116.057 C 42.534 112.730,42.276 109.760,42.114 109.456 C 41.952 109.153,41.747 107.798,41.660 106.446 L 41.500 103.987 42.441 103.716 C 44.475 103.132,151.198 103.321,151.926 103.911 " stroke="none" fill="#1f42b8" fill-rule="evenodd"></path><path id="path1" d="M216.801 68.681 C 216.533 69.160,216.940 73.117,217.457 75.059 C 217.718 76.043,217.990 79.123,218.172 83.160 C 218.345 86.984,218.632 90.304,218.867 91.199 C 219.095 92.068,219.390 95.346,219.551 98.822 C 219.737 102.808,220.021 105.784,220.371 107.415 C 220.747 109.165,220.996 112.016,221.204 116.962 C 221.368 120.840,221.605 124.146,221.730 124.307 C 222.196 124.910,222.321 126.153,222.594 132.918 C 222.807 138.174,222.980 140.069,223.309 140.766 C 223.643 141.472,223.806 143.368,224.015 148.944 C 224.180 153.359,224.434 156.745,224.664 157.588 C 225.190 159.517,225.336 160.955,225.633 167.152 C 225.775 170.125,226.079 173.368,226.309 174.359 C 226.565 175.463,226.833 178.897,227.002 183.229 C 227.214 188.654,227.378 190.500,227.711 191.167 C 228.038 191.822,228.235 193.868,228.512 199.488 C 228.716 203.629,229.015 207.194,229.185 207.511 C 229.630 208.342,229.790 210.083,230.059 216.987 C 230.192 220.384,230.420 223.316,230.566 223.502 C 231.046 224.112,231.152 225.148,231.467 232.294 C 231.650 236.446,231.942 240.008,232.175 240.927 C 232.393 241.788,232.571 242.811,232.571 243.201 C 232.571 244.969,233.743 245.871,236.047 245.875 C 236.510 245.876,237.381 246.128,237.983 246.434 C 238.584 246.741,239.889 247.129,240.883 247.298 C 241.876 247.466,243.063 247.826,243.520 248.097 C 243.978 248.369,245.256 248.679,246.360 248.786 C 247.625 248.909,248.602 249.166,249.001 249.479 C 249.379 249.777,250.385 250.058,251.501 250.177 C 252.702 250.306,253.619 250.574,254.068 250.927 C 254.519 251.282,255.505 251.569,256.845 251.735 C 257.987 251.877,259.386 252.228,259.953 252.515 C 260.520 252.802,261.670 253.123,262.509 253.228 C 263.347 253.333,264.407 253.646,264.865 253.923 C 265.322 254.201,266.483 254.517,267.444 254.625 C 268.405 254.733,269.652 255.058,270.216 255.347 C 270.779 255.636,272.107 255.997,273.167 256.148 C 274.226 256.300,275.307 256.618,275.570 256.856 C 275.839 257.099,276.993 257.408,278.218 257.563 C 279.465 257.722,280.688 258.051,281.093 258.338 C 281.481 258.613,282.479 258.926,283.311 259.035 C 284.143 259.144,285.447 259.517,286.209 259.865 C 286.972 260.212,288.279 260.583,289.114 260.689 C 289.949 260.795,291.072 261.119,291.609 261.410 C 292.146 261.700,293.501 262.058,294.621 262.204 C 295.741 262.351,296.864 262.655,297.116 262.881 C 297.368 263.106,298.198 263.376,298.960 263.480 C 301.013 263.759,302.426 264.158,302.426 264.460 C 302.426 264.867,303.476 264.777,304.190 264.310 C 304.539 264.081,305.803 263.769,306.998 263.618 C 308.219 263.463,309.379 263.154,309.646 262.912 C 309.908 262.676,310.978 262.351,312.025 262.191 C 313.073 262.031,314.304 261.673,314.761 261.395 C 315.218 261.117,316.486 260.767,317.578 260.617 C 318.729 260.458,319.895 260.111,320.350 259.791 C 320.839 259.447,321.812 259.175,322.919 259.071 C 323.900 258.978,324.998 258.709,325.360 258.472 C 325.722 258.234,327.103 257.851,328.429 257.620 C 329.754 257.389,331.028 257.029,331.259 256.821 C 331.490 256.612,332.530 256.306,333.569 256.140 C 334.609 255.974,335.732 255.659,336.065 255.441 C 336.398 255.223,337.762 254.870,339.096 254.656 C 340.431 254.442,341.739 254.073,342.002 253.835 C 342.265 253.597,343.265 253.315,344.223 253.207 C 345.273 253.088,346.235 252.798,346.644 252.476 C 347.114 252.106,348.060 251.866,349.716 251.695 C 351.208 251.541,352.291 251.283,352.592 251.011 C 352.857 250.771,354.024 250.409,355.184 250.207 C 356.344 250.006,357.476 249.688,357.700 249.502 C 357.924 249.316,359.121 248.987,360.359 248.771 C 361.598 248.555,362.800 248.189,363.030 247.959 C 363.261 247.728,363.510 247.540,363.584 247.540 C 364.625 247.540,367.818 246.831,368.165 246.523 C 368.417 246.299,369.532 245.990,370.642 245.836 C 374.109 245.356,374.480 244.706,374.503 239.085 C 374.516 235.686,374.944 231.511,375.326 231.050 C 375.521 230.816,375.737 228.318,375.894 224.484 C 376.173 217.666,376.311 216.123,376.876 213.449 C 377.085 212.455,377.335 209.397,377.429 206.653 C 377.540 203.444,377.794 200.723,378.140 199.030 C 378.494 197.296,378.766 194.312,378.934 190.298 C 379.223 183.419,379.363 181.957,379.901 180.180 C 380.128 179.428,380.391 176.262,380.563 172.211 C 380.765 167.420,380.964 165.230,381.253 164.588 C 381.544 163.943,381.746 161.679,381.964 156.618 C 382.132 152.730,382.398 149.051,382.557 148.441 C 382.715 147.831,382.949 146.895,383.076 146.362 C 383.204 145.828,383.389 142.834,383.488 139.709 C 383.609 135.871,383.839 133.172,384.197 131.393 C 384.541 129.680,384.825 126.497,385.009 122.291 C 385.225 117.340,385.395 115.617,385.736 114.945 C 386.084 114.257,386.233 112.577,386.427 107.138 C 386.602 102.232,386.802 99.781,387.113 98.745 C 387.404 97.776,387.677 94.872,387.923 90.152 C 388.130 86.184,388.442 82.653,388.627 82.190 C 388.810 81.733,389.067 79.362,389.199 76.923 C 389.562 70.196,389.581 68.645,389.300 68.552 C 388.357 68.237,216.978 68.365,216.801 68.681 M358.597 103.812 C 359.145 104.553,358.906 110.245,358.252 112.015 C 357.854 113.093,357.420 118.911,357.330 124.374 C 357.294 126.598,361.374 126.403,314.741 126.403 L 273.042 126.403 273.042 127.329 C 273.042 127.839,273.290 129.442,273.593 130.893 C 274.037 133.020,274.650 141.527,274.702 146.285 C 274.714 147.418,275.731 147.487,290.156 147.336 C 335.486 146.861,353.256 146.896,353.985 147.460 C 354.978 148.228,354.694 159.653,353.585 163.539 C 353.322 164.464,353.149 166.193,353.143 167.974 C 353.127 172.385,352.693 177.656,352.217 179.210 C 351.930 180.147,351.701 182.817,351.509 187.451 C 351.302 192.433,351.109 194.583,350.802 195.319 C 350.336 196.433,350.167 198.525,349.983 205.405 C 349.902 208.453,349.725 210.361,349.452 211.124 C 349.228 211.753,348.953 212.992,348.842 213.877 C 348.556 216.168,348.007 216.632,345.315 216.860 C 343.750 216.992,343.040 217.182,342.648 217.574 C 342.280 217.942,341.527 218.168,340.219 218.302 C 339.050 218.422,338.110 218.682,337.769 218.980 C 337.429 219.276,336.324 219.583,334.912 219.775 C 333.602 219.953,332.429 220.269,332.190 220.508 C 331.709 220.989,331.192 221.117,328.967 221.307 C 327.954 221.393,327.114 221.647,326.662 222.002 C 326.186 222.377,325.314 222.625,324.019 222.752 C 322.770 222.875,321.850 223.130,321.414 223.473 C 320.977 223.817,320.000 224.086,318.630 224.239 C 317.117 224.409,316.349 224.637,315.915 225.044 C 315.480 225.453,314.768 225.662,313.373 225.792 C 312.180 225.903,311.152 226.171,310.698 226.489 C 310.265 226.792,309.087 227.114,307.836 227.269 C 306.616 227.420,305.504 227.720,305.224 227.973 C 304.559 228.575,302.674 228.530,301.395 227.882 C 300.818 227.590,299.660 227.265,298.822 227.160 C 297.983 227.055,296.923 226.746,296.466 226.472 C 296.008 226.199,294.849 225.888,293.889 225.780 C 292.929 225.672,291.615 225.302,290.968 224.959 C 290.322 224.615,289.063 224.242,288.170 224.131 C 287.277 224.019,286.097 223.697,285.546 223.416 C 284.996 223.134,283.630 222.779,282.510 222.628 C 281.390 222.477,280.261 222.160,280.001 221.925 C 279.741 221.689,278.605 221.366,277.477 221.206 C 276.350 221.046,275.230 220.737,274.989 220.519 C 274.749 220.301,273.619 219.978,272.480 219.802 C 271.341 219.625,270.083 219.254,269.685 218.977 C 269.146 218.603,265.788 217.879,264.587 217.879 C 264.533 217.879,264.302 217.693,264.074 217.465 C 263.846 217.237,262.684 216.906,261.490 216.729 C 257.987 216.209,257.658 215.732,257.409 210.811 C 257.301 208.676,257.021 206.184,256.787 205.272 C 256.520 204.232,256.234 200.871,256.019 196.263 C 255.802 191.625,255.550 188.679,255.336 188.280 C 254.713 187.121,254.580 181.218,255.166 180.732 C 256.079 179.974,276.718 180.130,277.489 180.901 C 278.354 181.765,278.536 182.993,278.876 190.265 C 279.242 198.081,279.231 198.053,282.051 198.359 C 282.966 198.459,284.136 198.780,284.650 199.073 C 285.165 199.367,286.507 199.723,287.633 199.866 C 288.844 200.020,289.989 200.344,290.439 200.660 C 290.892 200.979,291.927 201.270,293.001 201.381 C 293.992 201.483,295.177 201.797,295.634 202.079 C 296.091 202.361,297.252 202.680,298.213 202.788 C 299.174 202.897,300.417 203.218,300.974 203.502 C 302.321 204.189,304.202 204.183,304.896 203.490 C 305.261 203.125,306.015 202.900,307.321 202.768 C 308.367 202.662,309.639 202.334,310.158 202.036 C 310.696 201.727,311.882 201.429,312.930 201.340 C 314.158 201.235,315.080 200.977,315.731 200.554 C 316.387 200.129,317.306 199.873,318.569 199.765 C 319.815 199.659,320.692 199.418,321.203 199.042 C 321.739 198.646,322.603 198.424,324.093 198.299 C 327.105 198.046,326.898 198.457,327.108 192.328 C 327.240 188.448,327.409 186.694,327.721 185.964 C 328.004 185.300,328.210 183.599,328.326 180.974 C 328.423 178.784,328.563 175.672,328.636 174.058 L 328.770 171.124 310.424 170.940 C 300.333 170.838,283.768 170.755,273.613 170.755 C 253.703 170.755,254.407 170.805,253.623 169.341 C 253.460 169.036,253.218 166.013,253.086 162.623 C 252.918 158.328,252.715 156.084,252.416 155.222 C 252.126 154.383,251.894 151.976,251.696 147.748 C 251.517 143.932,251.196 140.435,250.870 138.739 C 250.530 136.973,250.272 134.054,250.159 130.700 C 250.046 127.338,249.796 124.513,249.468 122.890 C 249.153 121.333,248.833 117.871,248.644 113.954 C 248.474 110.437,248.218 107.154,248.076 106.658 C 247.718 105.409,247.764 104.736,248.254 104.089 C 249.017 103.078,357.853 102.805,358.597 103.812 " stroke="none" fill="#e85223" fill-rule="evenodd"></path><path id="path2" d="M0.000 138.600 L 0.000 277.200 200.000 277.200 L 400.000 277.200 400.000 138.600 L 400.000 0.000 200.000 0.000 L 0.000 0.000 0.000 138.600 M77.270 19.348 C 77.837 20.067,77.754 29.755,77.177 30.234 C 76.856 30.500,75.308 30.620,71.425 30.679 C 62.211 30.818,62.935 30.756,62.799 31.424 C 62.545 32.672,62.457 39.533,62.687 40.155 C 62.920 40.785,63.006 40.803,65.075 40.647 C 66.255 40.558,67.346 40.490,67.498 40.496 C 67.651 40.502,69.803 40.573,72.281 40.652 C 78.022 40.837,77.616 40.365,77.616 46.856 C 77.616 53.475,79.355 52.706,64.298 52.742 C 50.896 52.775,50.708 52.761,50.215 51.679 C 49.812 50.795,49.766 20.040,50.167 19.404 C 50.737 18.499,76.558 18.446,77.270 19.348 M109.034 19.211 L 109.771 19.694 109.771 23.754 C 109.771 28.081,109.558 28.829,108.324 28.829 C 107.596 28.829,107.924 29.821,108.979 30.806 L 109.771 31.546 109.771 41.284 C 109.771 51.759,109.682 52.506,108.339 53.268 C 107.585 53.696,84.024 53.819,82.983 53.400 C 81.841 52.941,81.630 52.018,81.711 47.837 C 81.803 43.052,82.000 42.637,84.297 42.388 C 85.701 42.235,85.722 42.222,84.636 42.180 C 83.533 42.137,83.434 42.059,82.557 40.541 L 81.635 38.947 81.708 29.576 C 81.787 19.493,81.858 18.995,83.250 18.797 C 85.968 18.410,108.360 18.769,109.034 19.211 M140.855 19.053 C 141.332 19.531,141.356 27.598,140.882 28.511 C 140.588 29.077,140.597 29.418,140.931 30.468 C 141.588 32.527,141.411 52.471,140.730 53.151 C 140.230 53.652,116.848 53.974,115.038 53.505 C 113.966 53.227,113.685 51.947,113.668 47.249 C 113.648 42.006,113.164 42.426,119.321 42.350 L 124.324 42.289 120.166 42.214 C 113.094 42.086,113.654 43.160,113.653 29.745 C 113.652 19.773,113.670 19.423,114.203 19.050 C 114.945 18.530,140.334 18.533,140.855 19.053 M240.930 18.850 C 243.962 18.850,244.025 18.971,243.890 24.563 L 243.781 29.104 244.621 29.257 C 245.083 29.341,247.145 29.372,249.203 29.327 L 252.945 29.245 253.084 24.144 C 253.213 19.405,253.261 19.030,253.762 18.854 C 254.748 18.509,264.253 18.871,264.900 19.278 L 265.489 19.649 265.442 35.639 L 265.395 51.628 264.796 52.113 C 264.085 52.688,254.832 53.077,253.708 52.578 C 252.947 52.241,252.947 52.238,252.946 46.570 L 252.945 41.996 249.480 41.912 C 247.574 41.865,245.516 41.900,244.906 41.988 L 243.798 42.149 243.727 46.780 C 243.627 53.280,244.306 52.646,237.340 52.741 C 230.813 52.830,231.546 54.966,231.618 36.080 C 231.692 16.847,231.268 18.470,236.148 18.709 C 237.735 18.786,239.887 18.850,240.930 18.850 M300.324 19.225 L 301.040 19.694 301.040 24.338 C 301.040 30.657,301.316 30.360,295.185 30.622 C 293.413 30.697,291.760 30.837,291.512 30.932 C 291.014 31.123,290.948 33.064,291.022 45.238 C 291.073 53.630,291.589 53.077,284.029 52.728 C 277.699 52.435,278.316 53.654,278.418 41.635 C 278.512 30.532,278.487 30.363,276.818 30.609 C 271.593 31.377,269.377 31.023,269.153 29.383 C 268.790 26.730,269.213 19.090,269.734 18.897 C 271.037 18.415,299.554 18.721,300.324 19.225 M317.109 19.122 C 317.418 19.288,317.672 19.576,317.672 19.763 C 317.672 19.950,317.910 20.251,318.201 20.433 C 318.492 20.615,318.811 21.128,318.908 21.574 C 319.006 22.019,319.392 22.670,319.765 23.021 C 320.138 23.372,320.444 23.865,320.444 24.116 C 320.444 24.368,320.753 24.865,321.132 25.221 C 321.511 25.577,321.898 26.276,321.991 26.775 C 322.085 27.274,322.338 27.749,322.554 27.832 C 322.770 27.915,323.066 28.298,323.213 28.683 C 323.553 29.578,323.988 29.578,324.212 28.683 C 324.309 28.298,324.613 27.862,324.888 27.715 C 325.163 27.568,325.467 27.088,325.564 26.648 C 325.660 26.209,326.044 25.562,326.418 25.212 C 326.791 24.861,327.096 24.396,327.096 24.177 C 327.096 23.959,327.377 23.435,327.720 23.013 C 328.063 22.591,328.593 21.831,328.898 21.324 C 329.203 20.816,329.594 20.166,329.767 19.879 C 329.940 19.592,330.211 19.227,330.370 19.068 C 330.768 18.670,342.047 18.767,342.536 19.173 C 343.131 19.667,343.059 51.635,342.461 52.232 C 342.076 52.617,334.218 52.956,332.086 52.680 C 330.678 52.497,330.561 51.940,330.561 45.387 C 330.561 39.754,330.521 39.228,330.077 39.141 C 329.757 39.077,329.496 39.301,329.307 39.797 C 329.150 40.210,328.713 40.915,328.336 41.363 C 327.959 41.811,327.651 42.347,327.651 42.556 C 327.651 42.764,327.410 43.103,327.116 43.309 C 326.822 43.515,326.499 44.009,326.399 44.407 C 326.300 44.805,325.917 45.414,325.548 45.760 C 325.180 46.106,324.879 46.546,324.879 46.737 C 324.879 47.142,324.125 47.956,323.750 47.956 C 323.403 47.956,321.275 45.872,321.275 45.531 C 321.275 45.382,320.901 44.789,320.444 44.213 C 319.986 43.638,319.612 42.949,319.612 42.683 C 319.612 42.416,319.311 42.001,318.943 41.760 C 318.575 41.519,318.194 40.956,318.096 40.510 C 317.957 39.878,317.736 39.671,317.101 39.578 L 316.286 39.458 316.286 45.478 C 316.286 53.431,316.793 52.807,310.329 52.807 C 305.792 52.807,305.403 52.767,305.035 52.266 C 304.700 51.808,304.650 49.216,304.710 35.503 L 304.782 19.282 305.475 18.908 C 306.320 18.453,316.198 18.635,317.109 19.122 M359.205 19.362 L 359.852 19.820 359.819 29.557 C 359.796 36.497,359.880 39.500,360.113 40.010 C 360.565 41.002,361.774 41.137,368.573 40.956 C 375.954 40.758,375.329 40.240,375.329 46.555 C 375.329 51.009,375.277 51.563,374.799 52.152 L 374.269 52.807 361.317 52.785 C 349.014 52.765,348.346 52.738,347.987 52.247 C 347.678 51.825,347.609 48.776,347.609 35.583 L 347.609 19.435 348.223 19.005 C 349.116 18.380,358.237 18.676,359.205 19.362 M95.703 42.326 C 95.970 42.395,96.407 42.395,96.674 42.326 C 96.940 42.256,96.722 42.199,96.188 42.199 C 95.655 42.199,95.437 42.256,95.703 42.326 M183.824 67.637 C 184.501 68.545,184.130 79.496,183.256 84.407 C 182.930 86.242,182.595 90.053,182.416 93.971 C 182.252 97.562,181.940 101.238,181.720 102.163 C 181.500 103.087,181.184 106.155,181.017 108.983 C 180.851 111.811,180.592 114.798,180.442 115.621 C 179.851 118.874,179.650 121.156,179.636 124.740 C 179.623 128.106,179.343 130.695,178.541 134.858 C 178.395 135.620,178.143 139.438,177.983 143.342 C 177.772 148.459,177.575 150.716,177.276 151.432 C 176.981 152.137,176.782 154.301,176.590 158.888 C 176.428 162.764,176.159 165.960,175.919 166.875 C 175.698 167.713,175.380 170.956,175.212 174.082 C 174.813 181.494,174.620 183.783,174.327 184.559 C 174.194 184.909,173.896 187.903,173.663 191.212 C 173.431 194.521,173.118 198.351,172.967 199.723 C 172.817 201.095,172.576 203.902,172.433 205.960 C 172.091 210.845,171.644 214.966,171.322 216.199 C 171.181 216.742,170.924 220.180,170.752 223.839 C 170.580 227.498,170.262 231.577,170.045 232.903 C 169.829 234.229,169.517 237.160,169.353 239.417 C 168.881 245.918,168.769 246.172,166.227 246.520 C 165.551 246.613,164.579 246.928,164.066 247.221 C 163.552 247.513,162.404 247.832,161.515 247.929 C 160.625 248.025,159.513 248.303,159.044 248.546 C 158.575 248.788,157.214 249.157,156.019 249.366 C 154.823 249.574,153.555 249.935,153.201 250.168 C 152.846 250.400,151.817 250.723,150.914 250.885 C 150.011 251.048,148.773 251.411,148.164 251.693 C 147.554 251.975,146.384 252.292,145.565 252.398 C 144.746 252.504,143.561 252.813,142.932 253.084 C 142.303 253.356,141.041 253.667,140.128 253.775 C 139.214 253.883,137.999 254.211,137.426 254.503 C 136.853 254.796,135.791 255.112,135.067 255.207 C 134.342 255.302,133.313 255.597,132.779 255.862 C 132.245 256.126,130.889 256.497,129.764 256.685 C 128.640 256.873,127.206 257.250,126.577 257.522 C 125.948 257.795,124.872 258.107,124.186 258.215 C 123.500 258.324,122.303 258.710,121.527 259.074 C 120.751 259.438,119.504 259.816,118.755 259.914 C 118.007 260.012,116.958 260.308,116.424 260.570 C 115.891 260.833,114.647 261.136,113.661 261.244 C 112.675 261.353,111.353 261.676,110.722 261.963 C 110.092 262.250,108.718 262.622,107.669 262.790 C 106.620 262.957,105.559 263.277,105.312 263.501 C 105.065 263.724,104.003 264.077,102.951 264.286 C 101.900 264.494,100.541 264.882,99.931 265.148 C 98.317 265.852,95.520 265.814,94.080 265.068 C 93.455 264.744,92.270 264.394,91.447 264.289 C 90.624 264.185,89.238 263.804,88.366 263.443 C 87.494 263.082,86.242 262.786,85.583 262.786 C 84.925 262.786,83.892 262.533,83.288 262.224 C 82.684 261.916,81.317 261.529,80.249 261.366 C 79.182 261.202,77.935 260.846,77.477 260.575 C 77.020 260.304,75.960 259.924,75.121 259.732 C 74.283 259.540,73.035 259.169,72.349 258.906 C 71.663 258.644,70.553 258.345,69.881 258.241 C 69.210 258.138,67.900 257.816,66.971 257.526 C 66.041 257.235,64.537 256.852,63.629 256.672 C 62.720 256.493,61.715 256.175,61.395 255.966 C 61.075 255.756,59.784 255.405,58.525 255.185 C 57.266 254.966,56.089 254.667,55.908 254.521 C 55.727 254.375,54.643 254.104,53.500 253.917 C 52.356 253.731,50.984 253.349,50.450 253.070 C 49.917 252.790,48.796 252.424,47.959 252.257 C 47.123 252.090,46.181 251.784,45.866 251.578 C 45.552 251.372,44.365 251.059,43.230 250.883 C 42.094 250.707,40.867 250.367,40.503 250.128 C 40.138 249.890,38.892 249.577,37.734 249.433 C 36.576 249.289,35.121 248.947,34.501 248.672 C 33.880 248.398,32.756 248.082,32.002 247.971 C 31.248 247.859,30.194 247.538,29.660 247.256 C 29.127 246.975,28.103 246.667,27.385 246.573 C 25.068 246.267,24.969 246.070,24.658 241.164 C 24.508 238.801,24.268 235.994,24.126 234.927 C 23.983 233.860,23.726 230.866,23.553 228.274 C 23.381 225.683,23.063 222.868,22.847 222.019 C 22.630 221.171,22.453 219.812,22.453 219.001 C 22.453 218.189,22.325 216.139,22.168 214.445 C 22.011 212.751,21.775 209.868,21.643 208.039 C 21.511 206.209,21.276 204.213,21.121 203.604 C 20.965 202.994,20.701 199.626,20.532 196.119 C 20.358 192.490,20.065 189.206,19.851 188.496 C 19.645 187.810,19.332 184.692,19.155 181.566 C 18.841 176.026,18.522 172.344,18.013 168.399 C 17.875 167.332,17.630 164.338,17.467 161.746 C 17.305 159.155,17.051 156.473,16.903 155.787 C 16.628 154.509,16.568 153.773,16.086 145.737 C 15.933 143.182,15.616 140.188,15.383 139.084 C 15.150 137.979,14.833 134.394,14.679 131.116 C 14.401 125.215,14.144 122.574,13.585 119.889 C 13.426 119.127,13.175 115.561,13.028 111.966 C 12.835 107.267,12.636 105.084,12.319 104.204 C 12.001 103.318,11.810 101.180,11.627 96.457 C 11.488 92.870,11.192 88.878,10.970 87.587 C 10.458 84.612,10.299 82.973,9.988 77.477 C 9.850 75.038,9.534 72.178,9.286 71.121 C 8.740 68.794,8.889 68.064,10.056 67.352 C 10.940 66.813,11.870 66.808,97.129 66.875 L 183.308 66.944 183.824 67.637 M389.855 67.614 C 390.764 68.369,390.892 68.952,390.603 71.040 C 390.451 72.141,390.131 75.974,389.893 79.556 C 389.655 83.139,389.339 86.819,389.191 87.734 C 389.043 88.649,388.732 92.017,388.500 95.218 C 388.268 98.420,387.955 101.850,387.804 102.841 C 387.654 103.832,387.342 107.325,387.110 110.603 C 386.878 113.881,386.509 117.810,386.290 119.335 C 386.071 120.859,385.760 124.539,385.599 127.512 C 385.438 130.485,385.121 134.103,384.895 135.551 C 384.669 136.999,384.351 140.617,384.189 143.590 C 384.026 146.563,383.718 150.058,383.503 151.358 C 383.088 153.869,382.704 158.372,382.282 165.677 C 382.139 168.143,381.890 170.409,381.729 170.710 C 381.567 171.012,381.301 173.672,381.136 176.620 C 380.971 179.569,380.718 182.855,380.573 183.922 C 380.429 184.990,380.186 187.547,380.034 189.605 C 379.882 191.663,379.639 194.969,379.494 196.951 C 379.349 198.933,379.042 201.739,378.812 203.188 C 378.582 204.636,378.266 208.254,378.110 211.227 C 377.954 214.200,377.645 217.630,377.424 218.850 C 376.927 221.587,376.446 226.977,376.435 229.938 C 376.431 231.157,376.239 233.403,376.010 234.927 C 375.781 236.452,375.425 239.362,375.221 241.394 C 374.741 246.164,375.193 245.749,368.676 247.411 C 366.591 247.943,361.715 249.371,360.499 249.806 C 360.042 249.970,358.919 250.286,358.004 250.508 C 357.089 250.731,355.780 251.101,355.094 251.331 C 354.407 251.561,352.911 251.922,351.767 252.135 C 350.624 252.347,349.376 252.663,348.995 252.837 C 348.614 253.011,347.242 253.437,345.946 253.784 C 341.643 254.938,340.278 255.322,338.600 255.855 C 337.685 256.145,336.198 256.513,335.295 256.673 C 334.392 256.833,333.360 257.156,333.002 257.390 C 332.644 257.625,331.636 257.945,330.763 258.101 C 329.890 258.258,328.302 258.680,327.235 259.039 C 326.168 259.399,324.671 259.781,323.909 259.889 C 323.146 259.997,322.186 260.257,321.774 260.466 C 321.362 260.674,320.365 260.979,319.556 261.143 C 318.100 261.438,314.808 262.404,312.405 263.241 C 311.719 263.480,310.159 263.902,308.940 264.179 C 307.720 264.455,306.110 264.879,305.361 265.120 C 303.530 265.709,302.748 265.674,300.699 264.908 C 299.743 264.550,298.399 264.171,297.713 264.065 C 297.027 263.960,295.717 263.644,294.802 263.364 C 293.888 263.084,292.328 262.649,291.337 262.397 C 288.610 261.704,285.034 260.685,283.021 260.028 C 278.508 258.553,277.783 258.351,276.051 258.081 C 275.037 257.924,273.665 257.548,273.002 257.247 C 272.338 256.946,271.421 256.694,270.963 256.687 C 270.506 256.681,269.589 256.429,268.925 256.128 C 268.261 255.827,266.905 255.450,265.910 255.291 C 264.916 255.132,263.650 254.813,263.097 254.581 C 262.545 254.349,261.246 253.980,260.211 253.762 C 259.176 253.543,257.957 253.172,257.501 252.936 C 257.046 252.701,255.962 252.377,255.092 252.216 C 254.222 252.055,253.157 251.740,252.724 251.516 C 252.291 251.293,250.979 250.928,249.808 250.707 C 248.637 250.486,247.242 250.134,246.708 249.926 C 246.175 249.717,245.052 249.456,244.213 249.345 C 243.375 249.235,242.128 248.918,241.441 248.640 C 240.755 248.363,238.760 247.745,237.006 247.267 C 232.151 245.942,232.042 245.898,231.605 245.054 C 231.322 244.505,231.118 242.458,230.910 238.078 C 230.749 234.668,230.441 230.880,230.226 229.660 C 230.012 228.441,229.701 225.385,229.536 222.869 C 229.035 215.223,228.969 214.494,228.565 212.197 C 228.351 210.977,228.095 207.984,227.996 205.545 C 227.815 201.070,227.580 198.600,227.050 195.575 C 226.890 194.666,226.628 191.174,226.468 187.814 C 226.289 184.058,226.023 181.224,225.778 180.457 C 225.527 179.671,225.270 176.802,225.082 172.696 C 224.919 169.113,224.592 165.059,224.357 163.687 C 223.803 160.461,223.457 156.597,223.425 153.292 C 223.411 151.843,223.155 148.912,222.856 146.778 C 222.557 144.643,222.184 140.714,222.028 138.046 C 221.871 135.378,221.622 132.197,221.475 130.977 C 221.327 129.757,221.016 126.701,220.784 124.186 C 220.552 121.670,220.057 116.369,219.684 112.405 C 219.312 108.441,218.933 103.585,218.843 101.615 C 218.753 99.645,218.499 97.150,218.280 96.071 C 218.060 94.992,217.697 90.929,217.473 87.041 C 217.249 83.153,216.946 79.536,216.800 79.002 C 216.522 77.988,215.939 71.483,215.939 69.399 C 215.939 68.607,216.110 68.020,216.437 67.694 C 217.121 67.009,389.030 66.930,389.855 67.614 M276.646 104.225 L 249.342 104.366 249.395 108.801 C 249.425 111.240,249.643 114.421,249.880 115.870 C 250.117 117.318,250.440 120.561,250.597 123.077 C 250.874 127.508,251.161 130.545,251.682 134.581 C 251.820 135.648,252.076 138.954,252.250 141.927 C 252.424 144.900,252.744 148.330,252.961 149.550 C 253.178 150.769,253.483 154.200,253.639 157.173 C 253.794 160.146,254.035 163.326,254.173 164.241 C 254.311 165.156,254.512 166.466,254.619 167.152 C 254.725 167.838,254.974 168.659,255.172 168.977 L 255.532 169.555 292.278 169.746 C 312.489 169.851,329.225 170.013,329.470 170.107 C 330.159 170.372,330.335 171.208,330.093 173.067 C 329.494 177.664,329.310 179.583,329.042 184.061 C 328.883 186.729,328.573 190.159,328.354 191.684 C 328.135 193.209,327.878 195.290,327.783 196.310 C 327.581 198.478,327.464 198.608,325.371 198.994 C 324.498 199.154,323.422 199.473,322.980 199.701 C 322.538 199.930,321.334 200.251,320.305 200.416 C 319.276 200.580,318.106 200.883,317.706 201.088 C 317.306 201.293,316.230 201.608,315.315 201.788 C 314.401 201.967,312.904 202.353,311.989 202.645 C 311.074 202.937,309.577 203.359,308.663 203.584 C 307.748 203.809,306.313 204.194,305.475 204.440 C 303.611 204.985,300.458 204.865,299.176 204.199 C 298.685 203.944,297.329 203.553,296.164 203.330 C 294.998 203.107,293.899 202.804,293.720 202.655 C 293.541 202.507,292.439 202.188,291.271 201.947 C 290.103 201.705,288.736 201.340,288.233 201.134 C 287.730 200.928,286.456 200.613,285.403 200.433 C 284.349 200.254,283.146 199.930,282.729 199.715 C 282.312 199.499,281.452 199.240,280.817 199.138 C 278.617 198.787,278.502 198.547,278.142 193.585 C 277.746 188.138,276.936 181.820,276.573 181.358 C 276.226 180.916,257.688 180.856,256.538 181.293 C 255.859 181.551,255.811 181.671,255.946 182.748 C 256.027 183.394,256.235 185.981,256.409 188.496 C 256.583 191.012,256.973 195.253,257.275 197.921 C 257.577 200.589,257.948 205.142,258.098 208.039 C 258.464 215.072,258.437 215.034,263.861 216.244 C 265.139 216.529,266.324 216.877,266.495 217.018 C 266.665 217.159,267.495 217.401,268.338 217.556 C 269.182 217.711,270.616 218.088,271.526 218.392 C 272.436 218.697,273.845 219.082,274.657 219.246 C 275.470 219.411,276.393 219.684,276.709 219.853 C 277.025 220.022,278.294 220.384,279.529 220.656 C 280.764 220.928,282.335 221.340,283.021 221.571 C 283.708 221.802,285.049 222.188,286.001 222.430 C 286.954 222.671,288.514 223.067,289.466 223.308 C 290.419 223.550,291.760 223.935,292.446 224.164 C 293.132 224.393,294.489 224.761,295.462 224.982 C 296.434 225.202,297.744 225.615,298.372 225.899 C 301.322 227.234,305.104 227.234,308.743 225.900 C 309.550 225.605,310.985 225.187,311.931 224.972 C 312.878 224.757,314.213 224.393,314.900 224.164 C 315.586 223.935,316.895 223.559,317.810 223.328 C 320.760 222.585,322.751 222.044,325.017 221.370 C 326.237 221.008,327.796 220.563,328.482 220.381 C 329.168 220.200,331.040 219.681,332.640 219.229 C 334.241 218.777,336.549 218.173,337.769 217.887 C 338.988 217.601,340.424 217.181,340.958 216.955 C 341.493 216.728,342.734 216.397,343.715 216.219 C 347.646 215.506,348.025 215.032,348.269 210.531 C 348.368 208.699,348.566 206.766,348.709 206.234 C 348.853 205.702,349.165 202.335,349.404 198.753 C 349.642 195.170,350.019 191.053,350.240 189.605 C 350.462 188.157,350.769 184.664,350.923 181.843 C 351.263 175.598,351.447 173.665,351.772 172.881 C 351.910 172.550,352.222 169.041,352.466 165.082 C 352.711 161.122,353.022 157.380,353.159 156.766 C 353.703 154.323,354.018 149.092,353.647 148.645 C 353.333 148.267,349.029 148.233,314.015 148.331 C 284.539 148.413,274.654 148.361,274.413 148.120 C 274.099 147.807,273.965 146.765,273.324 139.709 C 273.151 137.803,272.901 135.620,272.769 134.858 C 272.380 132.622,272.178 126.589,272.476 126.126 C 272.712 125.761,277.747 125.694,314.111 125.572 L 355.476 125.433 355.937 123.880 C 356.234 122.882,356.567 119.742,356.871 115.090 C 357.131 111.110,357.461 107.444,357.605 106.943 C 358.058 105.363,357.935 104.625,357.160 104.272 C 356.422 103.936,335.195 103.924,276.646 104.225 M43.282 104.596 C 42.885 105.075,43.630 117.444,44.212 120.028 C 44.435 121.019,44.620 122.289,44.623 122.851 C 44.627 123.413,44.751 124.192,44.900 124.583 L 45.170 125.295 63.149 125.295 C 100.462 125.295,126.966 125.620,127.430 126.084 C 127.930 126.583,127.742 132.085,127.065 136.798 C 126.846 138.323,126.553 141.367,126.413 143.563 C 126.220 146.598,126.053 147.662,125.717 147.998 C 125.318 148.398,121.468 148.455,85.992 148.585 C 64.386 148.665,46.677 148.759,46.639 148.793 C 46.457 148.959,46.608 150.355,46.967 151.814 C 47.309 153.210,47.659 157.833,48.050 166.127 C 48.106 167.317,48.301 168.439,48.483 168.622 C 48.732 168.871,54.762 169.004,72.710 169.157 C 85.852 169.269,102.572 169.456,109.865 169.573 L 123.126 169.785 123.679 170.468 C 124.085 170.970,124.184 171.374,124.054 171.992 C 123.546 174.392,123.357 176.120,123.353 178.378 C 123.349 180.781,122.724 187.362,122.419 188.219 C 122.338 188.448,122.132 190.752,121.963 193.341 C 121.613 198.682,121.645 198.609,119.521 199.046 C 118.656 199.224,117.635 199.531,117.252 199.728 C 116.869 199.924,115.746 200.240,114.757 200.430 C 113.768 200.620,112.398 200.991,111.712 201.255 C 111.026 201.519,109.778 201.827,108.940 201.940 C 108.101 202.053,106.979 202.366,106.445 202.635 C 105.911 202.905,104.591 203.262,103.511 203.429 C 102.430 203.596,100.933 204.013,100.184 204.354 C 98.264 205.230,94.390 205.238,92.585 204.370 C 91.899 204.041,90.651 203.687,89.813 203.585 C 88.974 203.484,87.727 203.155,87.041 202.855 C 86.355 202.555,84.988 202.192,84.002 202.048 C 83.017 201.905,81.818 201.555,81.337 201.272 C 80.857 200.988,79.667 200.668,78.693 200.560 C 77.720 200.452,76.540 200.144,76.072 199.874 C 75.605 199.605,74.641 199.298,73.931 199.191 C 72.457 198.970,72.310 198.809,72.025 197.091 C 71.911 196.404,71.639 194.844,71.422 193.624 C 71.204 192.405,70.936 189.313,70.826 186.754 C 70.563 180.639,71.869 181.289,59.847 181.289 C 48.167 181.289,49.305 180.793,50.016 185.569 C 50.290 187.408,50.618 191.558,50.746 194.792 C 50.900 198.720,51.122 201.159,51.414 202.138 C 51.771 203.339,52.371 210.344,52.387 213.511 C 52.392 214.465,55.072 215.792,57.581 216.083 C 58.461 216.185,59.681 216.500,60.291 216.782 C 60.901 217.064,62.273 217.440,63.340 217.616 C 64.407 217.793,65.548 218.106,65.874 218.311 C 66.201 218.516,67.323 218.828,68.369 219.004 C 69.415 219.180,70.580 219.520,70.959 219.759 C 71.337 219.999,72.704 220.364,73.996 220.571 C 75.288 220.778,76.538 221.117,76.773 221.326 C 77.008 221.534,78.054 221.835,79.098 221.995 C 80.142 222.155,81.267 222.464,81.598 222.680 C 81.929 222.897,83.133 223.226,84.274 223.411 C 85.414 223.597,86.800 223.977,87.354 224.257 C 87.907 224.537,88.967 224.853,89.710 224.960 C 90.453 225.068,91.809 225.475,92.723 225.866 C 94.814 226.760,99.534 226.922,101.178 226.157 C 102.675 225.461,103.699 225.137,105.059 224.932 C 105.745 224.828,106.743 224.523,107.277 224.255 C 107.810 223.986,108.933 223.676,109.771 223.564 C 110.610 223.453,111.795 223.140,112.405 222.867 C 113.015 222.595,114.345 222.245,115.361 222.088 C 116.377 221.932,117.499 221.616,117.855 221.387 C 118.212 221.157,119.314 220.830,120.305 220.660 C 121.296 220.491,122.668 220.122,123.354 219.841 C 124.040 219.561,125.224 219.242,125.984 219.133 C 126.744 219.024,127.720 218.752,128.151 218.529 C 128.583 218.305,129.867 217.945,131.004 217.727 C 132.141 217.509,133.416 217.153,133.838 216.935 C 134.259 216.717,135.410 216.396,136.394 216.223 C 137.379 216.049,138.951 215.552,139.889 215.119 L 141.593 214.331 141.757 211.739 C 141.847 210.314,142.050 207.027,142.209 204.435 C 142.367 201.843,142.674 198.663,142.890 197.367 C 143.106 196.071,143.424 192.453,143.596 189.328 C 143.769 186.202,144.089 182.755,144.309 181.666 C 144.529 180.578,144.839 177.272,144.998 174.320 C 145.158 171.369,145.407 168.143,145.553 167.152 C 145.818 165.344,146.119 161.890,146.663 154.401 C 146.824 152.190,147.064 149.945,147.196 149.411 C 147.329 148.877,147.637 145.322,147.880 141.511 C 148.124 137.699,148.503 133.770,148.722 132.779 C 148.941 131.788,149.245 128.343,149.398 125.123 C 149.551 121.903,149.865 118.018,150.094 116.489 C 150.576 113.279,151.157 104.863,150.923 104.484 C 150.646 104.037,43.654 104.149,43.282 104.596 " stroke="none" fill="#f4f3f3" fill-rule="evenodd"></path><path id="path3" d="M54.251 18.823 C 51.286 18.951,50.370 19.081,50.167 19.404 C 49.766 20.040,49.812 50.795,50.215 51.679 C 50.708 52.761,50.896 52.775,64.298 52.742 C 79.355 52.706,77.616 53.475,77.616 46.856 C 77.616 40.365,78.022 40.837,72.281 40.652 C 69.803 40.573,67.651 40.502,67.498 40.496 C 67.346 40.490,66.255 40.558,65.075 40.647 C 63.006 40.803,62.920 40.785,62.687 40.155 C 62.457 39.533,62.545 32.672,62.799 31.424 C 62.935 30.756,62.211 30.818,71.425 30.679 C 75.308 30.620,76.856 30.500,77.177 30.234 C 77.754 29.755,77.837 20.067,77.270 19.348 C 76.877 18.850,61.666 18.503,54.251 18.823 M83.250 18.797 C 81.858 18.995,81.787 19.493,81.708 29.576 L 81.635 38.947 82.557 40.541 C 83.434 42.059,83.533 42.137,84.636 42.180 C 85.722 42.222,85.701 42.235,84.297 42.388 C 82.000 42.637,81.803 43.052,81.711 47.837 C 81.630 52.018,81.841 52.941,82.983 53.400 C 84.024 53.819,107.585 53.696,108.339 53.268 C 109.682 52.506,109.771 51.759,109.771 41.284 L 109.771 31.546 108.979 30.806 C 107.924 29.821,107.596 28.829,108.324 28.829 C 109.558 28.829,109.771 28.081,109.771 23.754 L 109.771 19.694 109.034 19.211 C 108.360 18.769,85.968 18.410,83.250 18.797 M114.203 19.050 C 113.670 19.423,113.652 19.773,113.653 29.745 C 113.654 43.160,113.094 42.086,120.166 42.214 L 124.324 42.289 119.321 42.350 C 113.164 42.426,113.648 42.006,113.668 47.249 C 113.685 51.947,113.966 53.227,115.038 53.505 C 116.848 53.974,140.230 53.652,140.730 53.151 C 141.411 52.471,141.588 32.527,140.931 30.468 C 140.597 29.418,140.588 29.077,140.882 28.511 C 141.356 27.598,141.332 19.531,140.855 19.053 C 140.334 18.533,114.945 18.530,114.203 19.050 M232.676 18.825 C 231.723 19.242,231.680 19.944,231.618 36.080 C 231.546 54.966,230.813 52.830,237.340 52.741 C 244.306 52.646,243.627 53.280,243.727 46.780 L 243.798 42.149 244.906 41.988 C 245.516 41.900,247.574 41.865,249.480 41.912 L 252.945 41.996 252.946 46.570 C 252.947 52.238,252.947 52.241,253.708 52.578 C 254.832 53.077,264.085 52.688,264.796 52.113 L 265.395 51.628 265.442 35.639 L 265.489 19.649 264.900 19.278 C 264.253 18.871,254.748 18.509,253.762 18.854 C 253.261 19.030,253.213 19.405,253.084 24.144 L 252.945 29.245 249.203 29.327 C 247.145 29.372,245.083 29.341,244.621 29.257 L 243.781 29.104 243.890 24.563 C 244.025 18.971,243.962 18.850,240.930 18.850 C 239.887 18.850,237.735 18.786,236.148 18.709 C 234.562 18.631,232.999 18.683,232.676 18.825 M269.734 18.897 C 269.213 19.090,268.790 26.730,269.153 29.383 C 269.377 31.023,271.593 31.377,276.818 30.609 C 278.487 30.363,278.512 30.532,278.418 41.635 C 278.316 53.654,277.699 52.435,284.029 52.728 C 291.589 53.077,291.073 53.630,291.022 45.238 C 290.948 33.064,291.014 31.123,291.512 30.932 C 291.760 30.837,293.413 30.697,295.185 30.622 C 301.316 30.360,301.040 30.657,301.040 24.338 L 301.040 19.694 300.324 19.225 C 299.554 18.721,271.037 18.415,269.734 18.897 M305.475 18.908 L 304.782 19.282 304.710 35.503 C 304.650 49.216,304.700 51.808,305.035 52.266 C 305.403 52.767,305.792 52.807,310.329 52.807 C 316.793 52.807,316.286 53.431,316.286 45.478 L 316.286 39.458 317.101 39.578 C 317.736 39.671,317.957 39.878,318.096 40.510 C 318.194 40.956,318.575 41.519,318.943 41.760 C 319.311 42.001,319.612 42.416,319.612 42.683 C 319.612 42.949,319.986 43.638,320.444 44.213 C 320.901 44.789,321.275 45.382,321.275 45.531 C 321.275 45.872,323.403 47.956,323.750 47.956 C 324.125 47.956,324.879 47.142,324.879 46.737 C 324.879 46.546,325.180 46.106,325.548 45.760 C 325.917 45.414,326.300 44.805,326.399 44.407 C 326.499 44.009,326.822 43.515,327.116 43.309 C 327.410 43.103,327.651 42.764,327.651 42.556 C 327.651 42.347,327.959 41.811,328.336 41.363 C 328.713 40.915,329.150 40.210,329.307 39.797 C 329.496 39.301,329.757 39.077,330.077 39.141 C 330.521 39.228,330.561 39.754,330.561 45.387 C 330.561 51.940,330.678 52.497,332.086 52.680 C 334.218 52.956,342.076 52.617,342.461 52.232 C 343.059 51.635,343.131 19.667,342.536 19.173 C 342.047 18.767,330.768 18.670,330.370 19.068 C 330.211 19.227,329.940 19.592,329.767 19.879 C 329.594 20.166,329.203 20.816,328.898 21.324 C 328.593 21.831,328.063 22.591,327.720 23.013 C 327.377 23.435,327.096 23.959,327.096 24.177 C 327.096 24.396,326.791 24.861,326.418 25.212 C 326.044 25.562,325.660 26.209,325.564 26.648 C 325.467 27.088,325.163 27.568,324.888 27.715 C 324.613 27.862,324.309 28.298,324.212 28.683 C 323.988 29.578,323.553 29.578,323.213 28.683 C 323.066 28.298,322.770 27.915,322.554 27.832 C 322.338 27.749,322.085 27.274,321.991 26.775 C 321.898 26.276,321.511 25.577,321.132 25.221 C 320.753 24.865,320.444 24.368,320.444 24.116 C 320.444 23.865,320.138 23.372,319.765 23.021 C 319.392 22.670,319.006 22.019,318.908 21.574 C 318.811 21.128,318.492 20.615,318.201 20.433 C 317.910 20.251,317.672 19.950,317.672 19.763 C 317.672 18.790,307.072 18.048,305.475 18.908 M348.223 19.005 L 347.609 19.435 347.609 35.583 C 347.609 48.776,347.678 51.825,347.987 52.247 C 348.346 52.738,349.014 52.765,361.317 52.785 L 374.269 52.807 374.799 52.152 C 375.277 51.563,375.329 51.009,375.329 46.555 C 375.329 40.240,375.954 40.758,368.573 40.956 C 361.774 41.137,360.565 41.002,360.113 40.010 C 359.880 39.500,359.796 36.497,359.819 29.557 L 359.852 19.820 359.205 19.362 C 358.237 18.676,349.116 18.380,348.223 19.005 M76.729 19.737 C 77.144 20.152,77.203 29.263,76.792 29.517 C 76.643 29.609,73.384 29.730,69.549 29.787 C 60.939 29.914,61.708 29.414,61.582 34.963 C 61.422 41.983,60.819 41.510,69.979 41.554 C 74.923 41.578,76.674 41.674,76.839 41.930 C 76.961 42.119,77.030 44.394,76.992 46.985 L 76.923 51.698 63.895 51.698 L 50.866 51.698 50.728 35.897 C 50.650 27.093,50.696 19.944,50.831 19.751 C 51.174 19.259,76.238 19.245,76.729 19.737 M108.126 19.691 C 108.617 19.954,108.663 20.305,108.663 23.839 C 108.663 28.678,109.376 28.274,100.814 28.274 C 93.270 28.274,93.190 28.293,93.628 29.983 L 93.867 30.908 100.763 30.982 C 106.692 31.046,107.730 31.120,108.161 31.510 C 108.887 32.167,108.936 50.607,108.215 51.708 L 107.767 52.391 95.612 52.391 C 81.300 52.391,82.883 53.002,82.883 47.475 C 82.883 42.528,82.152 42.966,90.406 42.966 C 97.733 42.966,97.779 42.957,97.611 41.580 C 97.470 40.421,97.263 40.385,90.422 40.359 C 85.246 40.338,83.699 40.250,83.341 39.952 C 82.751 39.462,82.631 20.321,83.216 19.737 C 83.653 19.300,107.314 19.256,108.126 19.691 M140.425 19.718 C 140.664 20.106,140.646 27.602,140.405 27.993 C 140.294 28.171,137.752 28.274,133.469 28.274 C 126.024 28.274,125.298 28.397,125.508 29.616 C 125.748 31.001,125.998 31.046,133.370 31.046 C 137.709 31.046,140.294 31.150,140.404 31.328 C 140.639 31.708,140.646 51.066,140.412 51.805 C 140.146 52.644,114.956 52.743,114.633 51.906 C 114.285 51.003,114.189 43.737,114.520 43.338 C 114.763 43.045,116.266 42.966,121.573 42.966 C 127.849 42.966,129.740 42.779,129.726 42.159 C 129.687 40.475,129.564 40.446,121.691 40.281 C 117.956 40.203,114.810 40.055,114.700 39.953 C 114.457 39.727,114.149 20.431,114.379 19.831 C 114.590 19.282,140.087 19.172,140.425 19.718 M242.772 19.737 C 243.004 19.968,243.106 21.463,243.109 24.657 C 243.114 30.548,242.674 30.075,248.154 30.083 C 253.841 30.092,253.361 30.576,253.361 24.831 C 253.361 18.919,252.886 19.404,258.670 19.404 C 263.770 19.404,264.870 19.633,264.546 20.628 C 264.443 20.946,264.348 27.978,264.334 36.254 C 264.314 49.311,264.255 51.337,263.895 51.565 C 263.259 51.967,254.102 51.912,253.694 51.504 C 253.461 51.271,253.361 49.743,253.361 46.410 C 253.361 40.510,253.789 40.961,248.292 41.075 C 242.701 41.192,243.105 40.764,243.105 46.570 C 243.105 52.338,243.607 51.870,237.524 51.774 L 232.710 51.698 232.638 35.929 C 232.586 24.513,232.653 20.055,232.880 19.782 C 233.302 19.272,242.267 19.232,242.772 19.737 M299.395 19.691 C 300.185 20.114,300.223 28.930,299.437 29.351 C 299.165 29.496,297.141 29.695,294.938 29.793 C 292.320 29.909,290.861 30.085,290.724 30.301 C 290.609 30.482,290.512 35.252,290.510 40.901 C 290.507 48.514,290.420 51.257,290.173 51.504 C 289.758 51.919,280.741 51.971,279.979 51.563 C 279.495 51.304,279.470 50.744,279.512 41.039 C 279.566 28.526,280.117 29.763,274.544 29.892 C 271.687 29.959,270.407 29.889,270.120 29.650 C 269.696 29.299,269.493 19.996,269.901 19.589 C 270.217 19.272,298.797 19.371,299.395 19.691 M317.518 20.888 C 318.060 21.704,318.503 22.496,318.503 22.647 C 318.503 22.798,318.769 23.159,319.093 23.450 C 319.418 23.740,319.926 24.477,320.222 25.087 C 321.302 27.313,321.853 28.208,322.796 29.270 L 323.759 30.353 324.595 29.383 C 325.359 28.495,326.813 26.201,327.507 24.788 C 327.662 24.472,328.015 23.910,328.291 23.541 C 329.107 22.448,330.700 19.856,330.700 19.621 C 330.700 19.246,341.631 19.358,342.010 19.737 C 342.490 20.217,342.490 51.024,342.010 51.504 C 341.554 51.960,332.333 51.972,331.878 51.518 C 331.647 51.286,331.605 49.411,331.726 44.649 C 331.849 39.821,331.806 37.935,331.562 37.479 L 331.231 36.860 330.139 37.738 C 329.539 38.220,328.966 38.877,328.866 39.197 C 328.765 39.517,328.420 40.106,328.098 40.506 C 327.776 40.906,327.297 41.592,327.035 42.030 C 326.340 43.191,325.928 43.827,325.226 44.818 C 324.883 45.303,324.480 46.021,324.332 46.412 C 323.893 47.566,323.229 47.019,321.186 43.823 C 320.854 43.304,320.243 42.368,319.829 41.744 C 319.415 41.120,318.826 40.173,318.521 39.640 C 316.047 35.319,315.731 35.833,315.731 44.174 C 315.731 49.247,315.640 51.263,315.398 51.504 C 314.932 51.971,305.997 51.971,305.530 51.504 C 305.050 51.024,305.050 20.217,305.530 19.737 C 305.766 19.501,307.418 19.404,311.198 19.404 L 316.533 19.404 317.518 20.888 M358.365 19.737 C 358.611 19.983,358.697 22.694,358.697 30.217 C 358.697 38.539,358.768 40.462,359.090 40.903 C 359.460 41.409,359.933 41.447,366.915 41.528 C 372.269 41.590,374.406 41.707,374.557 41.944 C 374.920 42.515,374.817 51.129,374.442 51.504 C 373.870 52.076,348.553 51.973,348.332 51.398 C 347.986 50.496,348.144 20.089,348.496 19.737 C 348.963 19.270,357.898 19.270,358.365 19.737 M96.674 42.326 C 96.407 42.395,95.970 42.395,95.703 42.326 C 95.437 42.256,95.655 42.199,96.188 42.199 C 96.722 42.199,96.940 42.256,96.674 42.326 M10.056 67.352 C 8.889 68.064,8.740 68.794,9.286 71.121 C 9.534 72.178,9.850 75.038,9.988 77.477 C 10.299 82.973,10.458 84.612,10.970 87.587 C 11.192 88.878,11.488 92.870,11.627 96.457 C 11.810 101.180,12.001 103.318,12.319 104.204 C 12.636 105.084,12.835 107.267,13.028 111.966 C 13.175 115.561,13.426 119.127,13.585 119.889 C 14.144 122.574,14.401 125.215,14.679 131.116 C 14.833 134.394,15.150 137.979,15.383 139.084 C 15.616 140.188,15.933 143.182,16.086 145.737 C 16.568 153.773,16.628 154.509,16.903 155.787 C 17.051 156.473,17.305 159.155,17.467 161.746 C 17.630 164.338,17.875 167.332,18.013 168.399 C 18.522 172.344,18.841 176.026,19.155 181.566 C 19.332 184.692,19.645 187.810,19.851 188.496 C 20.065 189.206,20.358 192.490,20.532 196.119 C 20.701 199.626,20.965 202.994,21.121 203.604 C 21.276 204.213,21.511 206.209,21.643 208.039 C 21.775 209.868,22.011 212.751,22.168 214.445 C 22.325 216.139,22.453 218.189,22.453 219.001 C 22.453 219.812,22.630 221.171,22.847 222.019 C 23.063 222.868,23.381 225.683,23.553 228.274 C 23.726 230.866,23.983 233.860,24.126 234.927 C 24.268 235.994,24.508 238.801,24.658 241.164 C 24.969 246.070,25.068 246.267,27.385 246.573 C 28.103 246.667,29.127 246.975,29.660 247.256 C 30.194 247.538,31.248 247.859,32.002 247.971 C 32.756 248.082,33.880 248.398,34.501 248.672 C 35.121 248.947,36.576 249.289,37.734 249.433 C 38.892 249.577,40.138 249.890,40.503 250.128 C 40.867 250.367,42.094 250.707,43.230 250.883 C 44.365 251.059,45.552 251.372,45.866 251.578 C 46.181 251.784,47.123 252.090,47.959 252.257 C 48.796 252.424,49.917 252.790,50.450 253.070 C 50.984 253.349,52.356 253.731,53.500 253.917 C 54.643 254.104,55.727 254.375,55.908 254.521 C 56.089 254.667,57.266 254.966,58.525 255.185 C 59.784 255.405,61.075 255.756,61.395 255.966 C 61.715 256.175,62.720 256.493,63.629 256.672 C 64.537 256.852,66.041 257.235,66.971 257.526 C 67.900 257.816,69.210 258.138,69.881 258.241 C 70.553 258.345,71.663 258.644,72.349 258.906 C 73.035 259.169,74.283 259.540,75.121 259.732 C 75.960 259.924,77.020 260.304,77.477 260.575 C 77.935 260.846,79.182 261.202,80.249 261.366 C 81.317 261.529,82.684 261.916,83.288 262.224 C 83.892 262.533,84.925 262.786,85.583 262.786 C 86.242 262.786,87.494 263.082,88.366 263.443 C 89.238 263.804,90.624 264.185,91.447 264.289 C 92.270 264.394,93.455 264.744,94.080 265.068 C 95.520 265.814,98.317 265.852,99.931 265.148 C 100.541 264.882,101.900 264.494,102.951 264.286 C 104.003 264.077,105.065 263.724,105.312 263.501 C 105.559 263.277,106.620 262.957,107.669 262.790 C 108.718 262.622,110.092 262.250,110.722 261.963 C 111.353 261.676,112.675 261.353,113.661 261.244 C 114.647 261.136,115.891 260.833,116.424 260.570 C 116.958 260.308,118.007 260.012,118.755 259.914 C 119.504 259.816,120.751 259.438,121.527 259.074 C 122.303 258.710,123.500 258.324,124.186 258.215 C 124.872 258.107,125.948 257.795,126.577 257.522 C 127.206 257.250,128.640 256.873,129.764 256.685 C 130.889 256.497,132.245 256.126,132.779 255.862 C 133.313 255.597,134.342 255.302,135.067 255.207 C 135.791 255.112,136.853 254.796,137.426 254.503 C 137.999 254.211,139.214 253.883,140.128 253.775 C 141.041 253.667,142.303 253.356,142.932 253.084 C 143.561 252.813,144.746 252.504,145.565 252.398 C 146.384 252.292,147.554 251.975,148.164 251.693 C 148.773 251.411,150.011 251.048,150.914 250.885 C 151.817 250.723,152.846 250.400,153.201 250.168 C 153.555 249.935,154.823 249.574,156.019 249.366 C 157.214 249.157,158.575 248.788,159.044 248.546 C 159.513 248.303,160.625 248.025,161.515 247.929 C 162.404 247.832,163.552 247.513,164.066 247.221 C 164.579 246.928,165.551 246.613,166.227 246.520 C 168.769 246.172,168.881 245.918,169.353 239.417 C 169.517 237.160,169.829 234.229,170.045 232.903 C 170.262 231.577,170.580 227.498,170.752 223.839 C 170.924 220.180,171.181 216.742,171.322 216.199 C 171.644 214.966,172.091 210.845,172.433 205.960 C 172.576 203.902,172.817 201.095,172.967 199.723 C 173.118 198.351,173.431 194.521,173.663 191.212 C 173.896 187.903,174.194 184.909,174.327 184.559 C 174.620 183.783,174.813 181.494,175.212 174.082 C 175.380 170.956,175.698 167.713,175.919 166.875 C 176.159 165.960,176.428 162.764,176.590 158.888 C 176.782 154.301,176.981 152.137,177.276 151.432 C 177.575 150.716,177.772 148.459,177.983 143.342 C 178.143 139.438,178.395 135.620,178.541 134.858 C 179.343 130.695,179.623 128.106,179.636 124.740 C 179.650 121.156,179.851 118.874,180.442 115.621 C 180.592 114.798,180.851 111.811,181.017 108.983 C 181.184 106.155,181.500 103.087,181.720 102.163 C 181.940 101.238,182.252 97.562,182.416 93.971 C 182.595 90.053,182.930 86.242,183.256 84.407 C 184.130 79.496,184.501 68.545,183.824 67.637 L 183.308 66.944 97.129 66.875 C 11.870 66.808,10.940 66.813,10.056 67.352 M183.382 68.791 C 183.668 69.691,183.249 75.860,182.775 77.731 C 182.536 78.672,182.202 82.329,181.990 86.324 C 181.787 90.149,181.480 93.638,181.309 94.078 C 181.137 94.518,180.811 98.260,180.584 102.394 C 180.357 106.528,180.052 110.188,179.907 110.528 C 179.483 111.519,179.123 115.336,178.919 120.998 C 178.790 124.580,178.572 126.885,178.236 128.205 C 177.909 129.489,177.682 131.787,177.565 134.997 C 177.468 137.665,177.150 141.656,176.858 143.867 C 176.565 146.078,176.183 150.568,176.008 153.846 C 175.833 157.124,175.518 160.476,175.308 161.296 C 175.098 162.115,174.787 165.608,174.618 169.057 C 174.448 172.507,174.131 176.078,173.912 176.992 C 173.693 177.908,173.385 181.520,173.227 185.031 C 173.049 188.982,172.786 191.934,172.534 192.793 C 172.288 193.633,171.969 197.085,171.724 201.562 C 171.482 205.976,171.149 209.599,170.895 210.571 C 170.641 211.547,170.358 214.636,170.189 218.295 C 170.033 221.649,169.720 225.387,169.493 226.602 C 169.267 227.816,168.898 231.808,168.674 235.472 C 168.087 245.100,167.982 245.409,165.153 245.829 C 164.089 245.987,163.004 246.310,162.742 246.546 C 162.481 246.783,161.277 247.113,160.066 247.281 C 158.856 247.448,157.491 247.810,157.034 248.085 C 156.577 248.360,155.454 248.670,154.539 248.775 C 153.624 248.879,152.410 249.203,151.841 249.493 C 151.021 249.912,148.170 250.576,147.144 250.587 C 147.040 250.588,146.772 250.773,146.547 250.998 C 146.322 251.223,145.221 251.545,144.101 251.713 C 142.981 251.881,141.629 252.239,141.095 252.510 C 140.561 252.781,139.376 253.093,138.462 253.204 C 137.547 253.315,136.405 253.633,135.925 253.912 C 135.445 254.191,134.135 254.561,133.015 254.735 C 131.895 254.908,130.705 255.229,130.372 255.448 C 130.038 255.667,128.853 255.983,127.738 256.152 C 126.623 256.321,125.431 256.637,125.090 256.854 C 124.749 257.072,123.542 257.427,122.407 257.645 C 121.272 257.862,119.944 258.246,119.455 258.499 C 118.967 258.751,117.831 259.062,116.931 259.189 C 116.030 259.316,114.769 259.668,114.126 259.971 C 113.484 260.274,112.273 260.607,111.435 260.713 C 110.596 260.818,109.473 261.138,108.940 261.425 C 108.406 261.711,107.175 262.068,106.204 262.217 C 105.232 262.366,104.152 262.676,103.802 262.905 C 103.452 263.135,102.313 263.452,101.271 263.610 C 100.229 263.769,98.793 264.165,98.079 264.489 L 96.782 265.080 95.639 264.484 C 95.011 264.157,93.625 263.765,92.560 263.614 C 91.495 263.463,90.324 263.143,89.959 262.904 C 89.593 262.664,88.382 262.342,87.267 262.189 C 86.151 262.035,85.039 261.730,84.795 261.510 C 84.551 261.291,83.316 260.929,82.051 260.707 C 80.786 260.484,79.550 260.120,79.303 259.897 C 79.056 259.673,78.019 259.357,76.997 259.194 C 75.976 259.031,74.730 258.661,74.230 258.373 C 73.729 258.084,72.509 257.761,71.518 257.655 C 70.527 257.548,69.342 257.238,68.884 256.965 C 68.427 256.692,67.367 256.381,66.528 256.273 C 65.690 256.166,64.453 255.839,63.780 255.547 C 63.107 255.254,61.691 254.881,60.634 254.717 C 59.576 254.553,58.318 254.194,57.838 253.919 C 57.358 253.644,56.216 253.335,55.301 253.232 C 54.387 253.129,53.168 252.805,52.594 252.512 C 52.019 252.219,50.834 251.900,49.960 251.803 C 49.086 251.706,47.968 251.385,47.474 251.088 C 46.981 250.791,45.771 250.434,44.786 250.295 C 43.801 250.155,42.521 249.799,41.941 249.503 C 41.361 249.207,40.139 248.875,39.224 248.766 C 38.309 248.657,37.124 248.347,36.590 248.078 C 36.057 247.808,34.723 247.442,33.626 247.264 C 32.529 247.086,31.490 246.770,31.316 246.561 C 31.143 246.352,30.419 246.101,29.707 246.004 C 25.643 245.446,25.743 245.629,25.485 238.256 C 25.337 234.026,25.159 232.091,24.834 231.185 C 24.513 230.290,24.305 228.099,24.096 223.423 C 23.937 219.841,23.686 216.286,23.538 215.523 C 23.037 212.925,22.752 209.984,22.476 204.574 C 22.306 201.233,22.047 198.732,21.798 198.026 C 21.541 197.300,21.278 194.625,21.075 190.680 C 20.899 187.268,20.518 182.855,20.228 180.873 C 19.938 178.891,19.574 174.650,19.419 171.448 C 19.260 168.153,18.964 164.988,18.737 164.153 C 18.516 163.343,18.262 161.097,18.171 159.164 C 17.799 151.220,17.682 149.492,17.434 148.302 C 16.935 145.908,16.686 143.419,16.492 138.913 C 16.385 136.417,16.197 133.735,16.073 132.953 C 15.950 132.171,15.718 130.721,15.557 129.730 C 15.397 128.739,15.140 125.246,14.986 121.968 C 14.817 118.369,14.545 115.459,14.299 114.622 C 14.055 113.790,13.768 110.744,13.581 106.999 C 13.409 103.569,13.142 100.139,12.988 99.376 C 12.722 98.063,12.525 95.640,11.950 86.593 C 11.813 84.440,11.566 82.427,11.401 82.118 C 11.236 81.809,10.969 78.955,10.808 75.775 C 10.647 72.595,10.446 69.769,10.363 69.495 C 9.940 68.109,4.454 68.191,97.035 68.191 L 183.192 68.191 183.382 68.791 M42.441 103.716 L 41.500 103.987 41.660 106.446 C 41.747 107.798,41.952 109.153,42.114 109.456 C 42.276 109.760,42.534 112.730,42.686 116.057 C 43.045 123.886,43.292 125.310,44.419 126.039 C 44.611 126.163,63.229 126.327,85.793 126.403 L 126.819 126.542 126.904 127.723 C 126.951 128.372,126.722 129.869,126.394 131.049 C 125.891 132.858,125.773 134.214,125.642 139.692 C 125.491 146.033,125.472 146.203,124.845 146.784 C 124.123 147.454,105.803 147.747,64.691 147.748 C 49.188 147.748,46.310 147.809,46.033 148.142 C 45.472 148.818,45.866 157.622,46.562 159.945 C 46.722 160.478,46.958 162.888,47.086 165.300 C 47.274 168.821,47.412 169.776,47.786 170.151 C 48.217 170.581,51.078 170.627,85.457 170.755 L 122.661 170.894 122.560 176.022 C 122.474 180.427,122.381 181.325,121.902 182.390 C 121.411 183.480,121.329 184.372,121.224 189.736 C 121.062 198.061,121.089 197.990,117.981 198.323 C 116.865 198.443,115.911 198.720,115.498 199.044 C 115.099 199.359,114.171 199.637,113.201 199.734 C 110.854 199.968,110.420 200.084,109.889 200.615 C 109.576 200.928,108.729 201.156,107.404 201.282 C 106.235 201.394,104.948 201.713,104.326 202.047 C 103.712 202.375,102.450 202.692,101.361 202.790 C 100.063 202.906,99.305 203.121,98.956 203.470 C 98.130 204.295,96.120 204.462,94.866 203.808 C 94.286 203.505,92.896 203.103,91.777 202.915 C 90.659 202.726,89.229 202.347,88.600 202.072 C 87.971 201.797,86.708 201.484,85.793 201.378 C 84.879 201.271,83.756 200.961,83.299 200.688 C 82.841 200.416,81.555 200.053,80.440 199.883 C 79.324 199.713,78.135 199.392,77.797 199.170 C 77.458 198.949,76.330 198.647,75.290 198.499 C 72.912 198.163,73.124 198.520,72.855 194.385 C 72.729 192.442,72.446 190.042,72.226 189.051 C 72.006 188.060,71.741 185.901,71.638 184.255 C 71.375 180.075,72.547 180.457,60.000 180.457 L 49.354 180.457 48.918 181.124 C 48.407 181.903,48.744 188.990,49.472 192.795 C 49.691 193.941,50.009 197.841,50.177 201.459 C 50.374 205.676,50.620 208.387,50.863 209.009 C 51.072 209.543,51.315 211.040,51.403 212.335 C 51.615 215.430,52.415 216.256,55.637 216.709 C 56.770 216.868,57.907 217.184,58.163 217.413 C 58.418 217.641,59.626 217.976,60.845 218.157 C 62.065 218.338,63.250 218.652,63.479 218.855 C 63.708 219.058,64.979 219.413,66.305 219.644 C 67.630 219.875,69.002 220.252,69.354 220.481 C 69.705 220.710,70.846 221.034,71.888 221.200 C 72.930 221.366,74.053 221.672,74.383 221.881 C 74.713 222.090,75.913 222.413,77.051 222.600 C 78.188 222.786,79.560 223.162,80.100 223.435 C 80.640 223.708,81.767 224.019,82.606 224.126 C 83.444 224.233,84.603 224.561,85.181 224.854 C 85.760 225.147,86.945 225.510,87.815 225.661 C 88.685 225.811,89.896 226.166,90.506 226.449 C 91.116 226.732,92.293 227.048,93.121 227.150 C 93.949 227.253,95.195 227.596,95.889 227.912 C 97.088 228.458,97.191 228.463,97.961 228.022 C 98.407 227.766,99.718 227.437,100.876 227.291 C 102.113 227.135,103.265 226.816,103.673 226.517 C 104.078 226.220,105.113 225.932,106.168 225.823 C 107.337 225.703,108.250 225.432,108.767 225.051 C 109.300 224.658,110.240 224.387,111.597 224.235 C 112.715 224.110,114.103 223.761,114.680 223.461 C 115.258 223.161,116.601 222.786,117.665 222.629 C 118.743 222.469,119.729 222.165,119.893 221.940 C 120.075 221.692,121.068 221.431,122.482 221.260 C 123.914 221.087,124.969 220.808,125.290 220.517 C 125.593 220.242,126.626 219.948,127.798 219.800 C 128.894 219.663,130.182 219.310,130.661 219.018 C 131.146 218.721,132.362 218.398,133.407 218.288 C 134.641 218.158,135.528 217.898,136.001 217.526 C 136.485 217.145,137.326 216.905,138.585 216.790 C 142.007 216.476,142.711 215.494,142.739 210.987 C 142.752 208.824,142.935 207.104,143.324 205.497 C 143.772 203.644,143.935 201.699,144.106 196.173 C 144.289 190.252,144.398 189.044,144.823 188.233 C 145.246 187.426,145.365 186.147,145.584 180.056 C 145.795 174.182,145.942 172.541,146.371 171.264 C 146.802 169.981,146.932 168.510,147.080 163.225 C 147.228 157.917,147.357 156.464,147.798 155.123 C 148.238 153.783,148.376 152.233,148.563 146.510 C 148.748 140.845,148.879 139.361,149.256 138.633 C 149.627 137.914,149.774 136.367,149.988 130.891 C 150.179 126.013,150.380 123.689,150.688 122.800 C 150.989 121.928,151.202 119.590,151.395 115.038 C 151.560 111.138,151.850 107.702,152.116 106.475 L 152.562 104.425 151.926 103.911 C 151.198 103.321,44.475 103.132,42.441 103.716 M150.923 104.484 C 151.157 104.863,150.576 113.279,150.094 116.489 C 149.865 118.018,149.551 121.903,149.398 125.123 C 149.245 128.343,148.941 131.788,148.722 132.779 C 148.503 133.770,148.124 137.699,147.880 141.511 C 147.637 145.322,147.329 148.877,147.196 149.411 C 147.064 149.945,146.824 152.190,146.663 154.401 C 146.119 161.890,145.818 165.344,145.553 167.152 C 145.407 168.143,145.158 171.369,144.998 174.320 C 144.839 177.272,144.529 180.578,144.309 181.666 C 144.089 182.755,143.769 186.202,143.596 189.328 C 143.424 192.453,143.106 196.071,142.890 197.367 C 142.674 198.663,142.367 201.843,142.209 204.435 C 142.050 207.027,141.847 210.314,141.757 211.739 L 141.593 214.331 139.889 215.119 C 138.951 215.552,137.379 216.049,136.394 216.223 C 135.410 216.396,134.259 216.717,133.838 216.935 C 133.416 217.153,132.141 217.509,131.004 217.727 C 129.867 217.945,128.583 218.305,128.151 218.529 C 127.720 218.752,126.744 219.024,125.984 219.133 C 125.224 219.242,124.040 219.561,123.354 219.841 C 122.668 220.122,121.296 220.491,120.305 220.660 C 119.314 220.830,118.212 221.157,117.855 221.387 C 117.499 221.616,116.377 221.932,115.361 222.088 C 114.345 222.245,113.015 222.595,112.405 222.867 C 111.795 223.140,110.610 223.453,109.771 223.564 C 108.933 223.676,107.810 223.986,107.277 224.255 C 106.743 224.523,105.745 224.828,105.059 224.932 C 103.699 225.137,102.675 225.461,101.178 226.157 C 99.534 226.922,94.814 226.760,92.723 225.866 C 91.809 225.475,90.453 225.068,89.710 224.960 C 88.967 224.853,87.907 224.537,87.354 224.257 C 86.800 223.977,85.414 223.597,84.274 223.411 C 83.133 223.226,81.929 222.897,81.598 222.680 C 81.267 222.464,80.142 222.155,79.098 221.995 C 78.054 221.835,77.008 221.534,76.773 221.326 C 76.538 221.117,75.288 220.778,73.996 220.571 C 72.704 220.364,71.337 219.999,70.959 219.759 C 70.580 219.520,69.415 219.180,68.369 219.004 C 67.323 218.828,66.201 218.516,65.874 218.311 C 65.548 218.106,64.407 217.793,63.340 217.616 C 62.273 217.440,60.901 217.064,60.291 216.782 C 59.681 216.500,58.461 216.185,57.581 216.083 C 55.072 215.792,52.392 214.465,52.387 213.511 C 52.371 210.344,51.771 203.339,51.414 202.138 C 51.122 201.159,50.900 198.720,50.746 194.792 C 50.618 191.558,50.290 187.408,50.016 185.569 C 49.305 180.793,48.167 181.289,59.847 181.289 C 71.869 181.289,70.563 180.639,70.826 186.754 C 70.936 189.313,71.204 192.405,71.422 193.624 C 71.639 194.844,71.911 196.404,72.025 197.091 C 72.310 198.809,72.457 198.970,73.931 199.191 C 74.641 199.298,75.605 199.605,76.072 199.874 C 76.540 200.144,77.720 200.452,78.693 200.560 C 79.667 200.668,80.857 200.988,81.337 201.272 C 81.818 201.555,83.017 201.905,84.002 202.048 C 84.988 202.192,86.355 202.555,87.041 202.855 C 87.727 203.155,88.974 203.484,89.813 203.585 C 90.651 203.687,91.899 204.041,92.585 204.370 C 94.390 205.238,98.264 205.230,100.184 204.354 C 100.933 204.013,102.430 203.596,103.511 203.429 C 104.591 203.262,105.911 202.905,106.445 202.635 C 106.979 202.366,108.101 202.053,108.940 201.940 C 109.778 201.827,111.026 201.519,111.712 201.255 C 112.398 200.991,113.768 200.620,114.757 200.430 C 115.746 200.240,116.869 199.924,117.252 199.728 C 117.635 199.531,118.656 199.224,119.521 199.046 C 121.645 198.609,121.613 198.682,121.963 193.341 C 122.132 190.752,122.338 188.448,122.419 188.219 C 122.724 187.362,123.349 180.781,123.353 178.378 C 123.357 176.120,123.546 174.392,124.054 171.992 C 124.184 171.374,124.085 170.970,123.679 170.468 L 123.126 169.785 109.865 169.573 C 102.572 169.456,85.852 169.269,72.710 169.157 C 54.762 169.004,48.732 168.871,48.483 168.622 C 48.301 168.439,48.106 167.317,48.050 166.127 C 47.659 157.833,47.309 153.210,46.967 151.814 C 46.608 150.355,46.457 148.959,46.639 148.793 C 46.677 148.759,64.386 148.665,85.992 148.585 C 121.468 148.455,125.318 148.398,125.717 147.998 C 126.053 147.662,126.220 146.598,126.413 143.563 C 126.553 141.367,126.846 138.323,127.065 136.798 C 127.742 132.085,127.930 126.583,127.430 126.084 C 126.966 125.620,100.462 125.295,63.149 125.295 L 45.170 125.295 44.900 124.583 C 44.751 124.192,44.627 123.413,44.623 122.851 C 44.620 122.289,44.435 121.019,44.212 120.028 C 43.630 117.444,42.885 105.075,43.282 104.596 C 43.654 104.149,150.646 104.037,150.923 104.484 " stroke="none" fill="#96a2d3" fill-rule="evenodd"></path><path id="path4" d="M216.437 67.694 C 216.110 68.020,215.939 68.607,215.939 69.399 C 215.939 71.483,216.522 77.988,216.800 79.002 C 216.946 79.536,217.249 83.153,217.473 87.041 C 217.697 90.929,218.060 94.992,218.280 96.071 C 218.499 97.150,218.753 99.645,218.843 101.615 C 218.933 103.585,219.312 108.441,219.684 112.405 C 220.057 116.369,220.552 121.670,220.784 124.186 C 221.016 126.701,221.327 129.757,221.475 130.977 C 221.622 132.197,221.871 135.378,222.028 138.046 C 222.184 140.714,222.557 144.643,222.856 146.778 C 223.155 148.912,223.411 151.843,223.425 153.292 C 223.457 156.597,223.803 160.461,224.357 163.687 C 224.592 165.059,224.919 169.113,225.082 172.696 C 225.270 176.802,225.527 179.671,225.778 180.457 C 226.023 181.224,226.289 184.058,226.468 187.814 C 226.628 191.174,226.890 194.666,227.050 195.575 C 227.580 198.600,227.815 201.070,227.996 205.545 C 228.095 207.984,228.351 210.977,228.565 212.197 C 228.969 214.494,229.035 215.223,229.536 222.869 C 229.701 225.385,230.012 228.441,230.226 229.660 C 230.441 230.880,230.749 234.668,230.910 238.078 C 231.118 242.458,231.322 244.505,231.605 245.054 C 232.042 245.898,232.151 245.942,237.006 247.267 C 238.760 247.745,240.755 248.363,241.441 248.640 C 242.128 248.918,243.375 249.235,244.213 249.345 C 245.052 249.456,246.175 249.717,246.708 249.926 C 247.242 250.134,248.637 250.486,249.808 250.707 C 250.979 250.928,252.291 251.293,252.724 251.516 C 253.157 251.740,254.222 252.055,255.092 252.216 C 255.962 252.377,257.046 252.701,257.501 252.936 C 257.957 253.172,259.176 253.543,260.211 253.762 C 261.246 253.980,262.545 254.349,263.097 254.581 C 263.650 254.813,264.916 255.132,265.910 255.291 C 266.905 255.450,268.261 255.827,268.925 256.128 C 269.589 256.429,270.506 256.681,270.963 256.687 C 271.421 256.694,272.338 256.946,273.002 257.247 C 273.665 257.548,275.037 257.924,276.051 258.081 C 277.783 258.351,278.508 258.553,283.021 260.028 C 285.034 260.685,288.610 261.704,291.337 262.397 C 292.328 262.649,293.888 263.084,294.802 263.364 C 295.717 263.644,297.027 263.960,297.713 264.065 C 298.399 264.171,299.743 264.550,300.699 264.908 C 302.748 265.674,303.530 265.709,305.361 265.120 C 306.110 264.879,307.720 264.455,308.940 264.179 C 310.159 263.902,311.719 263.480,312.405 263.241 C 314.808 262.404,318.100 261.438,319.556 261.143 C 320.365 260.979,321.362 260.674,321.774 260.466 C 322.186 260.257,323.146 259.997,323.909 259.889 C 324.671 259.781,326.168 259.399,327.235 259.039 C 328.302 258.680,329.890 258.258,330.763 258.101 C 331.636 257.945,332.644 257.625,333.002 257.390 C 333.360 257.156,334.392 256.833,335.295 256.673 C 336.198 256.513,337.685 256.145,338.600 255.855 C 340.278 255.322,341.643 254.938,345.946 253.784 C 347.242 253.437,348.614 253.011,348.995 252.837 C 349.376 252.663,350.624 252.347,351.767 252.135 C 352.911 251.922,354.407 251.561,355.094 251.331 C 355.780 251.101,357.089 250.731,358.004 250.508 C 358.919 250.286,360.042 249.970,360.499 249.806 C 361.715 249.371,366.591 247.943,368.676 247.411 C 375.193 245.749,374.741 246.164,375.221 241.394 C 375.425 239.362,375.781 236.452,376.010 234.927 C 376.239 233.403,376.431 231.157,376.435 229.938 C 376.446 226.977,376.927 221.587,377.424 218.850 C 377.645 217.630,377.954 214.200,378.110 211.227 C 378.266 208.254,378.582 204.636,378.812 203.188 C 379.042 201.739,379.349 198.933,379.494 196.951 C 379.639 194.969,379.882 191.663,380.034 189.605 C 380.186 187.547,380.429 184.990,380.573 183.922 C 380.718 182.855,380.971 179.569,381.136 176.620 C 381.301 173.672,381.567 171.012,381.729 170.710 C 381.890 170.409,382.139 168.143,382.282 165.677 C 382.704 158.372,383.088 153.869,383.503 151.358 C 383.718 150.058,384.026 146.563,384.189 143.590 C 384.351 140.617,384.669 136.999,384.895 135.551 C 385.121 134.103,385.438 130.485,385.599 127.512 C 385.760 124.539,386.071 120.859,386.290 119.335 C 386.509 117.810,386.878 113.881,387.110 110.603 C 387.342 107.325,387.654 103.832,387.804 102.841 C 387.955 101.850,388.268 98.420,388.500 95.218 C 388.732 92.017,389.043 88.649,389.191 87.734 C 389.339 86.819,389.655 83.139,389.893 79.556 C 390.131 75.974,390.451 72.141,390.603 71.040 C 390.892 68.952,390.764 68.369,389.855 67.614 C 389.030 66.930,217.121 67.009,216.437 67.694 M389.300 68.552 C 389.581 68.645,389.562 70.196,389.199 76.923 C 389.067 79.362,388.810 81.733,388.627 82.190 C 388.442 82.653,388.130 86.184,387.923 90.152 C 387.677 94.872,387.404 97.776,387.113 98.745 C 386.802 99.781,386.602 102.232,386.427 107.138 C 386.233 112.577,386.084 114.257,385.736 114.945 C 385.395 115.617,385.225 117.340,385.009 122.291 C 384.825 126.497,384.541 129.680,384.197 131.393 C 383.839 133.172,383.609 135.871,383.488 139.709 C 383.389 142.834,383.204 145.828,383.076 146.362 C 382.949 146.895,382.715 147.831,382.557 148.441 C 382.398 149.051,382.132 152.730,381.964 156.618 C 381.746 161.679,381.544 163.943,381.253 164.588 C 380.964 165.230,380.765 167.420,380.563 172.211 C 380.391 176.262,380.128 179.428,379.901 180.180 C 379.363 181.957,379.223 183.419,378.934 190.298 C 378.766 194.312,378.494 197.296,378.140 199.030 C 377.794 200.723,377.540 203.444,377.429 206.653 C 377.335 209.397,377.085 212.455,376.876 213.449 C 376.311 216.123,376.173 217.666,375.894 224.484 C 375.737 228.318,375.521 230.816,375.326 231.050 C 374.944 231.511,374.516 235.686,374.503 239.085 C 374.480 244.706,374.109 245.356,370.642 245.836 C 369.532 245.990,368.417 246.299,368.165 246.523 C 367.818 246.831,364.625 247.540,363.584 247.540 C 363.510 247.540,363.261 247.728,363.030 247.959 C 362.800 248.189,361.598 248.555,360.359 248.771 C 359.121 248.987,357.924 249.316,357.700 249.502 C 357.476 249.688,356.344 250.006,355.184 250.207 C 354.024 250.409,352.857 250.771,352.592 251.011 C 352.291 251.283,351.208 251.541,349.716 251.695 C 348.060 251.866,347.114 252.106,346.644 252.476 C 346.235 252.798,345.273 253.088,344.223 253.207 C 343.265 253.315,342.265 253.597,342.002 253.835 C 341.739 254.073,340.431 254.442,339.096 254.656 C 337.762 254.870,336.398 255.223,336.065 255.441 C 335.732 255.659,334.609 255.974,333.569 256.140 C 332.530 256.306,331.490 256.612,331.259 256.821 C 331.028 257.029,329.754 257.389,328.429 257.620 C 327.103 257.851,325.722 258.234,325.360 258.472 C 324.998 258.709,323.900 258.978,322.919 259.071 C 321.812 259.175,320.839 259.447,320.350 259.791 C 319.895 260.111,318.729 260.458,317.578 260.617 C 316.486 260.767,315.218 261.117,314.761 261.395 C 314.304 261.673,313.073 262.031,312.025 262.191 C 310.978 262.351,309.908 262.676,309.646 262.912 C 309.379 263.154,308.219 263.463,306.998 263.618 C 305.803 263.769,304.539 264.081,304.190 264.310 C 303.476 264.777,302.426 264.867,302.426 264.460 C 302.426 264.158,301.013 263.759,298.960 263.480 C 298.198 263.376,297.368 263.106,297.116 262.881 C 296.864 262.655,295.741 262.351,294.621 262.204 C 293.501 262.058,292.146 261.700,291.609 261.410 C 291.072 261.119,289.949 260.795,289.114 260.689 C 288.279 260.583,286.972 260.212,286.209 259.865 C 285.447 259.517,284.143 259.144,283.311 259.035 C 282.479 258.926,281.481 258.613,281.093 258.338 C 280.688 258.051,279.465 257.722,278.218 257.563 C 276.993 257.408,275.839 257.099,275.570 256.856 C 275.307 256.618,274.226 256.300,273.167 256.148 C 272.107 255.997,270.779 255.636,270.216 255.347 C 269.652 255.058,268.405 254.733,267.444 254.625 C 266.483 254.517,265.322 254.201,264.865 253.923 C 264.407 253.646,263.347 253.333,262.509 253.228 C 261.670 253.123,260.520 252.802,259.953 252.515 C 259.386 252.228,257.987 251.877,256.845 251.735 C 255.505 251.569,254.519 251.282,254.068 250.927 C 253.619 250.574,252.702 250.306,251.501 250.177 C 250.385 250.058,249.379 249.777,249.001 249.479 C 248.602 249.166,247.625 248.909,246.360 248.786 C 245.256 248.679,243.978 248.369,243.520 248.097 C 243.063 247.826,241.876 247.466,240.883 247.298 C 239.889 247.129,238.584 246.741,237.983 246.434 C 237.381 246.128,236.510 245.876,236.047 245.875 C 233.743 245.871,232.571 244.969,232.571 243.201 C 232.571 242.811,232.393 241.788,232.175 240.927 C 231.942 240.008,231.650 236.446,231.467 232.294 C 231.152 225.148,231.046 224.112,230.566 223.502 C 230.420 223.316,230.192 220.384,230.059 216.987 C 229.790 210.083,229.630 208.342,229.185 207.511 C 229.015 207.194,228.716 203.629,228.512 199.488 C 228.235 193.868,228.038 191.822,227.711 191.167 C 227.378 190.500,227.214 188.654,227.002 183.229 C 226.833 178.897,226.565 175.463,226.309 174.359 C 226.079 173.368,225.775 170.125,225.633 167.152 C 225.336 160.955,225.190 159.517,224.664 157.588 C 224.434 156.745,224.180 153.359,224.015 148.944 C 223.806 143.368,223.643 141.472,223.309 140.766 C 222.980 140.069,222.807 138.174,222.594 132.918 C 222.321 126.153,222.196 124.910,221.730 124.307 C 221.605 124.146,221.368 120.840,221.204 116.962 C 220.996 112.016,220.747 109.165,220.371 107.415 C 220.021 105.784,219.737 102.808,219.551 98.822 C 219.390 95.346,219.095 92.068,218.867 91.199 C 218.632 90.304,218.345 86.984,218.172 83.160 C 217.990 79.123,217.718 76.043,217.457 75.059 C 216.940 73.117,216.533 69.160,216.801 68.681 C 216.978 68.365,388.357 68.237,389.300 68.552 M276.311 103.390 C 244.452 103.556,247.098 103.250,248.076 106.658 C 248.218 107.154,248.474 110.437,248.644 113.954 C 248.833 117.871,249.153 121.333,249.468 122.890 C 249.796 124.513,250.046 127.338,250.159 130.700 C 250.272 134.054,250.530 136.973,250.870 138.739 C 251.196 140.435,251.517 143.932,251.696 147.748 C 251.894 151.976,252.126 154.383,252.416 155.222 C 252.715 156.084,252.918 158.328,253.086 162.623 C 253.218 166.013,253.460 169.036,253.623 169.341 C 254.407 170.805,253.703 170.755,273.613 170.755 C 283.768 170.755,300.333 170.838,310.424 170.940 L 328.770 171.124 328.636 174.058 C 328.563 175.672,328.423 178.784,328.326 180.974 C 328.210 183.599,328.004 185.300,327.721 185.964 C 327.409 186.694,327.240 188.448,327.108 192.328 C 326.898 198.457,327.105 198.046,324.093 198.299 C 322.603 198.424,321.739 198.646,321.203 199.042 C 320.692 199.418,319.815 199.659,318.569 199.765 C 317.306 199.873,316.387 200.129,315.731 200.554 C 315.080 200.977,314.158 201.235,312.930 201.340 C 311.882 201.429,310.696 201.727,310.158 202.036 C 309.639 202.334,308.367 202.662,307.321 202.768 C 306.015 202.900,305.261 203.125,304.896 203.490 C 304.202 204.183,302.321 204.189,300.974 203.502 C 300.417 203.218,299.174 202.897,298.213 202.788 C 297.252 202.680,296.091 202.361,295.634 202.079 C 295.177 201.797,293.992 201.483,293.001 201.381 C 291.927 201.270,290.892 200.979,290.439 200.660 C 289.989 200.344,288.844 200.020,287.633 199.866 C 286.507 199.723,285.165 199.367,284.650 199.073 C 284.136 198.780,282.966 198.459,282.051 198.359 C 279.231 198.053,279.242 198.081,278.876 190.265 C 278.536 182.993,278.354 181.765,277.489 180.901 C 276.718 180.130,256.079 179.974,255.166 180.732 C 254.580 181.218,254.713 187.121,255.336 188.280 C 255.550 188.679,255.802 191.625,256.019 196.263 C 256.234 200.871,256.520 204.232,256.787 205.272 C 257.021 206.184,257.301 208.676,257.409 210.811 C 257.658 215.732,257.987 216.209,261.490 216.729 C 262.684 216.906,263.846 217.237,264.074 217.465 C 264.302 217.693,264.533 217.879,264.587 217.879 C 265.788 217.879,269.146 218.603,269.685 218.977 C 270.083 219.254,271.341 219.625,272.480 219.802 C 273.619 219.978,274.749 220.301,274.989 220.519 C 275.230 220.737,276.350 221.046,277.477 221.206 C 278.605 221.366,279.741 221.689,280.001 221.925 C 280.261 222.160,281.390 222.477,282.510 222.628 C 283.630 222.779,284.996 223.134,285.546 223.416 C 286.097 223.697,287.277 224.019,288.170 224.131 C 289.063 224.242,290.322 224.615,290.968 224.959 C 291.615 225.302,292.929 225.672,293.889 225.780 C 294.849 225.888,296.008 226.199,296.466 226.472 C 296.923 226.746,297.983 227.055,298.822 227.160 C 299.660 227.265,300.818 227.590,301.395 227.882 C 302.674 228.530,304.559 228.575,305.224 227.973 C 305.504 227.720,306.616 227.420,307.836 227.269 C 309.087 227.114,310.265 226.792,310.698 226.489 C 311.152 226.171,312.180 225.903,313.373 225.792 C 314.768 225.662,315.480 225.453,315.915 225.044 C 316.349 224.637,317.117 224.409,318.630 224.239 C 320.000 224.086,320.977 223.817,321.414 223.473 C 321.850 223.130,322.770 222.875,324.019 222.752 C 325.314 222.625,326.186 222.377,326.662 222.002 C 327.114 221.647,327.954 221.393,328.967 221.307 C 331.192 221.117,331.709 220.989,332.190 220.508 C 332.429 220.269,333.602 219.953,334.912 219.775 C 336.324 219.583,337.429 219.276,337.769 218.980 C 338.110 218.682,339.050 218.422,340.219 218.302 C 341.527 218.168,342.280 217.942,342.648 217.574 C 343.040 217.182,343.750 216.992,345.315 216.860 C 348.007 216.632,348.556 216.168,348.842 213.877 C 348.953 212.992,349.228 211.753,349.452 211.124 C 349.725 210.361,349.902 208.453,349.983 205.405 C 350.167 198.525,350.336 196.433,350.802 195.319 C 351.109 194.583,351.302 192.433,351.509 187.451 C 351.701 182.817,351.930 180.147,352.217 179.210 C 352.693 177.656,353.127 172.385,353.143 167.974 C 353.149 166.193,353.322 164.464,353.585 163.539 C 354.694 159.653,354.978 148.228,353.985 147.460 C 353.256 146.896,335.486 146.861,290.156 147.336 C 275.731 147.487,274.714 147.418,274.702 146.285 C 274.650 141.527,274.037 133.020,273.593 130.893 C 273.290 129.442,273.042 127.839,273.042 127.329 L 273.042 126.403 314.741 126.403 C 361.374 126.403,357.294 126.598,357.330 124.374 C 357.420 118.911,357.854 113.093,358.252 112.015 C 358.906 110.245,359.145 104.553,358.597 103.812 C 358.135 103.186,336.714 103.076,276.311 103.390 M357.160 104.272 C 357.935 104.625,358.058 105.363,357.605 106.943 C 357.461 107.444,357.131 111.110,356.871 115.090 C 356.567 119.742,356.234 122.882,355.937 123.880 L 355.476 125.433 314.111 125.572 C 277.747 125.694,272.712 125.761,272.476 126.126 C 272.178 126.589,272.380 132.622,272.769 134.858 C 272.901 135.620,273.151 137.803,273.324 139.709 C 273.965 146.765,274.099 147.807,274.413 148.120 C 274.654 148.361,284.539 148.413,314.015 148.331 C 349.029 148.233,353.333 148.267,353.647 148.645 C 354.018 149.092,353.703 154.323,353.159 156.766 C 353.022 157.380,352.711 161.122,352.466 165.082 C 352.222 169.041,351.910 172.550,351.772 172.881 C 351.447 173.665,351.263 175.598,350.923 181.843 C 350.769 184.664,350.462 188.157,350.240 189.605 C 350.019 191.053,349.642 195.170,349.404 198.753 C 349.165 202.335,348.853 205.702,348.709 206.234 C 348.566 206.766,348.368 208.699,348.269 210.531 C 348.025 215.032,347.646 215.506,343.715 216.219 C 342.734 216.397,341.493 216.728,340.958 216.955 C 340.424 217.181,338.988 217.601,337.769 217.887 C 336.549 218.173,334.241 218.777,332.640 219.229 C 331.040 219.681,329.168 220.200,328.482 220.381 C 327.796 220.563,326.237 221.008,325.017 221.370 C 322.751 222.044,320.760 222.585,317.810 223.328 C 316.895 223.559,315.586 223.935,314.900 224.164 C 314.213 224.393,312.878 224.757,311.931 224.972 C 310.985 225.187,309.550 225.605,308.743 225.900 C 305.104 227.234,301.322 227.234,298.372 225.899 C 297.744 225.615,296.434 225.202,295.462 224.982 C 294.489 224.761,293.132 224.393,292.446 224.164 C 291.760 223.935,290.419 223.550,289.466 223.308 C 288.514 223.067,286.954 222.671,286.001 222.430 C 285.049 222.188,283.708 221.802,283.021 221.571 C 282.335 221.340,280.764 220.928,279.529 220.656 C 278.294 220.384,277.025 220.022,276.709 219.853 C 276.393 219.684,275.470 219.411,274.657 219.246 C 273.845 219.082,272.436 218.697,271.526 218.392 C 270.616 218.088,269.182 217.711,268.338 217.556 C 267.495 217.401,266.665 217.159,266.495 217.018 C 266.324 216.877,265.139 216.529,263.861 216.244 C 258.437 215.034,258.464 215.072,258.098 208.039 C 257.948 205.142,257.576 200.589,257.272 197.921 C 256.968 195.253,256.578 191.012,256.405 188.496 C 256.232 185.981,256.025 183.394,255.945 182.748 C 255.811 181.672,255.860 181.551,256.538 181.293 C 257.688 180.856,276.226 180.916,276.573 181.358 C 276.936 181.820,277.746 188.138,278.142 193.585 C 278.502 198.547,278.617 198.787,280.817 199.138 C 281.452 199.240,282.312 199.499,282.729 199.715 C 283.146 199.930,284.349 200.254,285.403 200.433 C 286.456 200.613,287.730 200.928,288.233 201.134 C 288.736 201.340,290.103 201.705,291.271 201.947 C 292.439 202.188,293.541 202.507,293.720 202.655 C 293.899 202.804,294.998 203.107,296.164 203.330 C 297.329 203.553,298.685 203.944,299.176 204.199 C 300.458 204.865,303.611 204.985,305.475 204.440 C 306.313 204.194,307.748 203.809,308.663 203.584 C 309.577 203.359,311.074 202.937,311.989 202.645 C 312.904 202.353,314.401 201.967,315.315 201.788 C 316.230 201.608,317.306 201.293,317.706 201.088 C 318.106 200.883,319.276 200.580,320.305 200.416 C 321.334 200.251,322.538 199.930,322.980 199.701 C 323.422 199.473,324.498 199.154,325.371 198.994 C 327.464 198.608,327.581 198.478,327.783 196.310 C 327.878 195.290,328.135 193.209,328.354 191.684 C 328.573 190.159,328.883 186.729,329.042 184.061 C 329.310 179.583,329.494 177.664,330.093 173.067 C 330.335 171.208,330.159 170.372,329.470 170.107 C 329.225 170.013,312.489 169.851,292.278 169.746 L 255.532 169.555 255.172 168.977 C 254.974 168.659,254.725 167.838,254.619 167.152 C 254.512 166.466,254.311 165.156,254.173 164.241 C 254.035 163.326,253.794 160.146,253.639 157.173 C 253.483 154.200,253.178 150.769,252.961 149.550 C 252.744 148.330,252.424 144.900,252.250 141.927 C 252.076 138.954,251.820 135.648,251.682 134.581 C 251.161 130.545,250.874 127.508,250.597 123.077 C 250.440 120.561,250.117 117.318,249.880 115.870 C 249.643 114.421,249.425 111.240,249.395 108.801 L 249.342 104.366 276.646 104.225 C 335.195 103.924,356.422 103.936,357.160 104.272 " stroke="none" fill="#e88360" fill-rule="evenodd"></path></g></svg>