<svg id="svg" version="1.1" xmlns="http://www.w3.org/2000/svg" xmlns:xlink="http://www.w3.org/1999/xlink" width="400" height="400" viewBox="0, 0, 400,400"><g id="svgg"><path id="path0" d="M0.000 200.000 L 0.000 400.000 200.000 400.000 L 400.000 400.000 400.000 200.000 L 400.000 0.000 200.000 0.000 L 0.000 0.000 0.000 200.000 M144.647 154.839 C 145.299 155.380,145.390 158.498,144.786 159.626 C 144.428 160.295,143.925 160.400,141.080 160.400 C 137.204 160.400,135.453 161.133,134.331 163.225 C 133.641 164.511,133.600 166.325,133.598 195.394 C 133.595 221.939,133.512 226.358,132.998 227.346 C 132.669 227.976,132.398 228.876,132.396 229.346 C 132.393 230.117,131.473 232.196,129.746 235.337 C 128.509 237.586,121.093 244.400,119.881 244.400 C 119.659 244.400,118.379 244.919,117.036 245.554 C 111.128 248.345,94.829 248.731,89.400 246.207 C 88.740 245.901,87.300 245.246,86.200 244.752 C 85.100 244.259,84.110 243.743,84.000 243.606 C 83.890 243.470,83.158 242.968,82.373 242.491 C 80.626 241.431,76.344 237.128,75.811 235.897 C 75.597 235.404,75.318 234.910,75.190 234.800 C 71.886 231.954,71.196 219.169,74.123 215.014 C 76.083 212.232,78.247 210.062,79.800 209.323 C 80.460 209.009,81.450 208.495,82.000 208.182 C 83.700 207.212,89.722 207.406,91.921 208.500 C 103.747 214.384,100.185 233.183,87.823 230.132 C 84.323 229.269,83.071 229.773,82.875 232.125 C 82.310 238.907,97.264 243.998,104.992 239.655 C 107.527 238.230,110.400 235.640,110.400 234.779 C 110.400 234.495,110.656 233.979,110.969 233.631 C 112.951 231.432,112.940 231.614,113.102 197.600 C 113.295 156.897,114.072 160.400,104.851 160.400 C 99.180 160.400,98.835 160.223,98.813 157.300 C 98.788 153.999,97.320 154.188,122.147 154.290 C 137.954 154.355,144.248 154.508,144.647 154.839 M178.974 164.790 C 179.905 165.144,180.000 165.385,180.000 167.400 C 180.000 170.136,179.522 170.400,174.561 170.400 C 169.406 170.400,168.539 170.900,168.200 174.065 C 167.455 181.035,168.220 224.896,169.133 227.570 C 170.601 231.865,173.131 234.671,177.600 236.960 L 180.600 238.496 186.600 238.490 C 192.950 238.484,192.396 238.599,198.000 236.113 C 198.770 235.772,199.689 235.202,200.043 234.846 C 200.396 234.491,201.116 233.807,201.643 233.328 C 202.850 232.227,203.600 231.316,203.600 230.948 C 203.600 230.791,203.842 230.379,204.138 230.031 C 204.434 229.684,205.109 228.050,205.638 226.400 L 206.600 223.400 206.600 200.800 L 206.600 178.200 205.667 176.050 C 205.154 174.867,204.077 173.297,203.273 172.561 C 201.820 171.229,201.432 171.083,198.000 170.578 C 195.545 170.217,194.800 169.467,194.800 167.361 C 194.800 164.346,194.498 164.400,211.209 164.400 C 227.615 164.400,226.800 164.242,226.800 167.431 C 226.800 169.990,226.567 170.177,222.724 170.697 C 219.564 171.124,216.425 173.360,216.403 175.200 C 216.398 175.530,216.082 176.340,215.698 177.000 C 215.066 178.090,214.979 180.355,214.757 201.600 C 214.594 217.191,214.354 225.734,214.039 227.200 C 212.905 232.478,207.791 239.786,203.400 242.404 C 202.520 242.929,201.710 243.480,201.600 243.629 C 201.490 243.778,200.410 244.300,199.200 244.789 C 197.990 245.277,196.348 245.947,195.551 246.276 C 192.352 247.599,180.945 248.417,176.400 247.651 C 174.970 247.409,172.810 247.048,171.600 246.848 C 170.390 246.648,168.410 246.091,167.200 245.610 C 165.990 245.130,164.415 244.562,163.700 244.349 C 162.985 244.137,162.400 243.830,162.400 243.669 C 162.400 243.507,161.905 243.154,161.300 242.883 C 157.136 241.021,151.647 234.819,151.609 231.933 C 151.604 231.567,151.423 231.207,151.206 231.133 C 150.099 230.759,149.891 226.375,149.734 200.200 C 149.541 167.856,150.179 170.846,143.400 170.504 C 141.200 170.392,139.175 170.122,138.900 169.902 C 138.258 169.389,138.243 165.517,138.880 164.880 C 139.489 164.271,177.385 164.186,178.974 164.790 M283.185 184.192 C 286.613 185.965,287.248 189.950,284.546 192.736 C 282.245 195.108,277.686 193.690,276.779 190.320 C 275.705 186.333,279.782 182.432,283.185 184.192 M310.826 191.614 C 311.545 191.999,311.600 192.516,311.600 198.934 C 311.600 207.367,311.167 206.796,317.580 206.813 C 322.992 206.826,323.750 207.064,324.208 208.890 C 324.756 211.075,323.485 211.600,317.649 211.600 C 313.851 211.600,312.382 211.740,312.056 212.132 C 311.404 212.918,311.629 238.692,312.297 239.865 C 314.719 244.112,321.425 241.411,322.414 235.790 C 323.260 230.985,326.800 228.413,326.800 232.604 C 326.800 245.941,311.690 252.333,304.888 241.874 L 303.800 240.200 303.680 226.211 C 303.548 210.707,303.735 211.616,300.674 211.606 C 297.399 211.596,295.372 208.590,298.100 207.790 C 303.547 206.192,306.478 202.123,307.695 194.469 C 308.012 192.476,308.278 191.865,308.949 191.595 C 310.067 191.143,309.944 191.142,310.826 191.614 M232.804 207.700 C 233.319 208.544,233.598 209.713,233.599 211.033 C 233.600 213.685,233.825 213.827,235.324 212.120 C 236.816 210.421,240.547 207.600,241.303 207.600 C 241.598 207.600,242.061 207.379,242.330 207.110 C 243.390 206.050,250.808 206.197,253.278 207.327 C 259.244 210.056,260.396 213.548,260.398 228.919 L 260.400 240.438 261.458 241.419 C 262.267 242.168,262.957 242.400,264.378 242.400 C 266.472 242.400,267.200 242.903,267.200 244.349 C 267.200 246.699,266.761 246.800,256.567 246.800 C 246.488 246.800,246.000 246.699,246.000 244.604 C 246.000 242.759,246.381 242.400,248.343 242.399 C 249.488 242.398,250.698 242.093,251.500 241.604 L 252.800 240.812 252.800 229.639 C 252.800 219.594,252.724 218.289,252.048 216.713 C 249.580 210.955,242.551 209.858,237.963 214.515 C 234.651 217.878,234.633 217.957,234.475 230.000 C 234.311 242.474,234.289 242.400,238.151 242.400 C 240.618 242.400,241.661 243.577,240.742 245.323 C 239.986 246.758,239.774 246.788,230.129 246.794 C 219.671 246.801,219.454 246.744,219.679 244.050 L 219.800 242.600 222.301 242.361 C 226.651 241.945,226.402 242.890,226.386 226.838 C 226.369 210.591,226.504 211.123,222.277 210.616 C 219.507 210.283,218.483 209.055,219.780 207.623 C 220.571 206.748,221.802 206.574,227.906 206.470 L 232.012 206.400 232.804 207.700 M286.233 207.376 C 286.700 208.016,286.801 211.039,286.806 224.576 C 286.813 243.337,286.566 242.130,290.453 242.400 C 293.795 242.632,294.776 243.757,293.428 245.813 L 292.782 246.800 282.618 246.800 L 272.454 246.800 271.653 245.675 C 270.247 243.700,271.177 242.647,274.545 242.400 C 279.052 242.069,278.851 242.823,278.715 226.746 L 278.600 213.217 277.492 212.109 C 276.565 211.182,275.949 210.967,273.733 210.800 C 270.680 210.570,269.978 209.965,270.623 208.121 C 271.245 206.347,285.001 205.690,286.233 207.376 " stroke="none" fill="#fbfbfb" fill-rule="evenodd"></path><path id="path1" d="M139.017 166.100 C 138.929 166.375,138.890 167.140,138.929 167.800 L 139.000 169.000 143.061 169.270 C 151.399 169.823,150.800 167.403,150.800 200.528 L 150.800 227.483 151.762 230.041 C 152.292 231.449,152.967 233.230,153.262 234.000 C 157.055 243.876,182.259 250.555,195.600 245.220 C 196.810 244.736,198.287 244.188,198.883 244.003 C 201.998 243.033,208.884 236.992,210.194 234.080 C 210.560 233.266,211.293 231.771,211.823 230.758 C 213.386 227.771,213.584 224.594,213.592 202.332 C 213.600 179.977,213.684 178.824,215.581 174.958 C 217.248 171.561,219.134 170.183,223.129 169.446 C 225.774 168.958,225.796 168.943,226.033 167.480 C 226.362 165.460,227.488 165.600,210.933 165.600 L 196.000 165.600 196.000 167.209 C 196.000 169.029,196.274 169.217,200.007 169.971 C 203.421 170.659,206.210 173.508,206.983 177.095 C 207.136 177.808,207.428 178.494,207.631 178.619 C 208.316 179.043,208.099 221.369,207.400 223.646 C 207.070 224.721,206.514 226.525,206.164 227.656 C 201.906 241.412,178.677 244.316,170.399 232.126 C 167.127 227.307,167.000 226.020,167.000 197.600 C 167.000 167.730,166.521 169.573,174.381 169.200 L 178.600 169.000 178.723 167.300 L 178.846 165.600 159.010 165.600 C 143.493 165.600,139.140 165.709,139.017 166.100 M279.100 185.652 C 275.915 188.254,278.111 193.838,282.012 193.058 C 285.799 192.300,286.487 187.355,283.097 185.260 C 281.293 184.145,280.898 184.183,279.100 185.652 M309.076 192.678 C 308.966 192.855,308.691 194.007,308.463 195.239 C 307.224 201.945,303.299 208.000,300.191 208.000 C 298.572 208.000,296.920 210.362,298.500 210.418 C 302.698 210.565,303.583 210.650,303.867 210.933 C 304.050 211.116,304.290 217.596,304.400 225.333 L 304.600 239.400 305.800 241.532 C 309.759 248.566,321.581 247.135,324.260 239.297 C 325.396 235.972,325.967 232.637,325.455 232.307 C 324.643 231.782,324.217 232.231,323.930 233.913 C 323.775 234.820,323.457 235.919,323.224 236.355 C 322.991 236.791,322.800 237.530,322.800 237.997 C 322.800 241.133,316.870 243.881,313.740 242.196 C 310.839 240.634,310.800 240.403,310.800 224.967 L 310.800 211.180 311.826 210.790 C 312.390 210.576,315.096 210.400,317.839 210.400 C 321.921 210.400,322.867 210.290,323.057 209.795 C 323.619 208.331,322.514 208.000,317.051 207.994 C 310.257 207.986,310.839 208.721,310.709 199.987 C 310.602 192.761,310.183 190.884,309.076 192.678 M225.400 207.661 C 222.980 207.852,220.755 208.099,220.455 208.209 C 219.456 208.576,220.791 209.600,222.269 209.600 C 227.004 209.600,227.374 210.769,227.526 226.200 C 227.689 242.773,227.582 243.105,222.073 243.177 C 220.430 243.199,220.353 243.253,220.473 244.300 L 220.600 245.400 230.200 245.400 L 239.800 245.400 239.800 244.402 C 239.800 243.481,239.614 243.381,237.400 243.110 C 233.222 242.600,233.200 242.539,233.200 231.449 C 233.200 224.520,233.345 221.690,233.767 220.371 C 234.078 219.397,234.431 218.150,234.549 217.599 C 234.793 216.473,238.610 212.001,239.332 211.998 C 239.589 211.996,240.340 211.703,241.000 211.347 C 243.845 209.809,249.417 211.100,251.297 213.733 C 253.707 217.106,253.703 217.089,253.913 227.435 C 254.212 242.157,254.108 242.516,249.360 243.109 C 247.189 243.380,247.000 243.483,247.000 244.402 L 247.000 245.400 255.800 245.513 C 265.805 245.642,266.507 245.560,266.326 244.286 C 266.218 243.526,265.863 243.359,263.815 243.104 C 259.677 242.589,259.837 243.111,259.573 229.290 C 259.247 212.276,258.088 209.301,251.173 207.739 C 245.296 206.412,240.579 207.982,236.095 212.758 C 233.766 215.239,232.800 215.073,232.800 212.195 C 232.800 209.888,231.634 207.193,230.662 207.256 C 230.188 207.287,227.820 207.469,225.400 207.661 M275.132 207.969 C 270.082 208.305,269.719 209.480,274.493 210.039 C 276.779 210.306,277.132 210.481,278.500 212.017 L 280.000 213.703 280.000 227.177 L 280.000 240.650 278.793 241.807 C 277.775 242.782,277.183 242.989,275.019 243.126 C 272.413 243.292,271.768 243.730,272.255 245.000 C 272.545 245.754,291.928 245.912,292.674 245.166 C 293.793 244.047,292.797 243.307,289.889 243.099 C 285.308 242.771,285.600 244.014,285.600 224.836 C 285.600 212.710,285.478 208.438,285.120 208.080 C 284.618 207.578,281.516 207.544,275.132 207.969 " stroke="none" fill="#cb1212" fill-rule="evenodd"></path><path id="path2" d="M100.342 155.470 C 100.127 155.729,100.007 156.719,100.076 157.670 L 100.200 159.400 105.692 159.600 C 114.927 159.936,114.381 157.804,114.392 193.577 C 114.403 230.583,114.166 232.630,109.265 237.722 C 105.034 242.118,95.174 243.789,90.001 240.986 C 89.451 240.688,88.313 240.137,87.472 239.763 C 79.847 236.366,79.891 228.038,87.528 229.118 C 94.181 230.059,98.400 226.489,98.400 219.919 C 98.400 204.875,75.995 204.809,73.593 219.846 C 73.372 221.227,73.084 222.637,72.953 222.979 C 72.269 224.762,74.309 232.095,76.284 234.956 C 78.946 238.810,84.233 243.328,87.000 244.113 C 87.440 244.237,88.970 244.848,90.400 245.470 L 93.000 246.600 102.600 246.586 L 112.200 246.572 114.810 245.352 C 116.245 244.681,117.925 244.005,118.544 243.850 C 119.162 243.695,119.878 243.392,120.134 243.177 C 120.390 242.962,121.770 241.907,123.200 240.833 C 124.630 239.759,126.250 238.303,126.800 237.598 C 127.350 236.893,128.025 236.078,128.300 235.787 C 128.575 235.495,128.800 235.137,128.800 234.990 C 128.800 234.844,129.137 234.246,129.548 233.662 C 130.301 232.592,131.529 229.019,132.354 225.494 C 132.661 224.183,132.800 214.350,132.800 193.981 C 132.800 157.796,132.325 160.055,140.008 159.685 L 144.037 159.491 143.918 157.330 L 143.800 155.169 122.266 155.085 C 106.159 155.021,100.634 155.119,100.342 155.470 " stroke="none" fill="#4f9c09" fill-rule="evenodd"></path><path id="path3" d="M138.880 164.880 C 138.243 165.517,138.258 169.389,138.900 169.902 C 139.175 170.122,141.200 170.392,143.400 170.504 C 150.179 170.846,149.541 167.856,149.734 200.200 C 149.891 226.375,150.099 230.759,151.206 231.133 C 151.423 231.207,151.604 231.567,151.609 231.933 C 151.629 233.432,153.320 236.176,155.757 238.661 C 158.326 241.281,159.192 241.941,161.300 242.883 C 161.905 243.154,162.400 243.507,162.400 243.669 C 162.400 243.830,162.985 244.137,163.700 244.349 C 164.415 244.562,165.990 245.130,167.200 245.610 C 168.410 246.091,170.390 246.648,171.600 246.848 C 172.810 247.048,174.970 247.409,176.400 247.651 C 180.945 248.417,192.352 247.599,195.551 246.276 C 196.348 245.947,197.990 245.277,199.200 244.789 C 200.410 244.300,201.490 243.778,201.600 243.629 C 201.710 243.480,202.520 242.929,203.400 242.404 C 207.791 239.786,212.905 232.478,214.039 227.200 C 214.354 225.734,214.594 217.191,214.757 201.600 C 214.979 180.355,215.066 178.090,215.698 177.000 C 216.082 176.340,216.398 175.530,216.403 175.200 C 216.425 173.360,219.564 171.124,222.724 170.697 C 226.567 170.177,226.800 169.990,226.800 167.431 C 226.800 164.242,227.615 164.400,211.209 164.400 C 194.498 164.400,194.800 164.346,194.800 167.361 C 194.800 169.467,195.545 170.217,198.000 170.578 C 201.432 171.083,201.820 171.229,203.273 172.561 C 204.077 173.297,205.154 174.867,205.667 176.050 L 206.600 178.200 206.600 200.800 L 206.600 223.400 205.638 226.400 C 205.109 228.050,204.434 229.684,204.138 230.031 C 203.842 230.379,203.600 230.791,203.600 230.948 C 203.600 231.316,202.850 232.227,201.643 233.328 C 201.116 233.807,200.396 234.491,200.043 234.846 C 199.689 235.202,198.770 235.772,198.000 236.113 C 192.396 238.599,192.950 238.484,186.600 238.490 L 180.600 238.496 177.600 236.960 C 173.131 234.671,170.601 231.865,169.133 227.570 C 168.220 224.896,167.455 181.035,168.200 174.065 C 168.539 170.900,169.406 170.400,174.561 170.400 C 179.522 170.400,180.000 170.136,180.000 167.400 C 180.000 165.385,179.905 165.144,178.974 164.790 C 177.385 164.186,139.489 164.271,138.880 164.880 M178.723 167.300 L 178.600 169.000 174.381 169.200 C 166.521 169.573,167.000 167.730,167.000 197.600 C 167.000 226.020,167.127 227.307,170.399 232.126 C 178.677 244.316,201.906 241.412,206.164 227.656 C 206.514 226.525,207.070 224.721,207.400 223.646 C 208.099 221.369,208.316 179.043,207.631 178.619 C 207.428 178.494,207.136 177.808,206.983 177.095 C 206.210 173.508,203.421 170.659,200.007 169.971 C 196.274 169.217,196.000 169.029,196.000 167.209 L 196.000 165.600 210.933 165.600 C 227.488 165.600,226.362 165.460,226.033 167.480 C 225.796 168.943,225.774 168.958,223.129 169.446 C 219.134 170.183,217.248 171.561,215.581 174.958 C 213.684 178.824,213.600 179.977,213.592 202.332 C 213.584 224.594,213.386 227.771,211.823 230.758 C 211.293 231.771,210.560 233.266,210.194 234.080 C 208.884 236.992,201.998 243.033,198.883 244.003 C 198.287 244.188,196.810 244.736,195.600 245.220 C 182.259 250.555,157.055 243.876,153.262 234.000 C 152.967 233.230,152.292 231.449,151.762 230.041 L 150.800 227.483 150.800 200.528 C 150.800 167.403,151.399 169.823,143.061 169.270 L 139.000 169.000 138.929 167.800 C 138.890 167.140,138.929 166.375,139.017 166.100 C 139.140 165.709,143.493 165.600,159.010 165.600 L 178.846 165.600 178.723 167.300 M278.900 184.774 C 275.782 187.033,275.734 190.876,278.799 192.999 C 283.399 196.187,288.632 190.253,285.137 185.811 C 283.265 183.432,281.222 183.092,278.900 184.774 M283.097 185.260 C 286.487 187.355,285.799 192.300,282.012 193.058 C 278.111 193.838,275.915 188.254,279.100 185.652 C 280.898 184.183,281.293 184.145,283.097 185.260 M308.949 191.595 C 308.278 191.865,308.012 192.476,307.695 194.469 C 306.478 202.123,303.547 206.192,298.100 207.790 C 295.372 208.590,297.399 211.596,300.674 211.606 C 303.735 211.616,303.548 210.707,303.680 226.211 L 303.800 240.200 304.888 241.874 C 311.690 252.333,326.800 245.941,326.800 232.604 C 326.800 228.413,323.260 230.985,322.414 235.790 C 321.425 241.411,314.719 244.112,312.297 239.865 C 311.629 238.692,311.404 212.918,312.056 212.132 C 312.382 211.740,313.851 211.600,317.649 211.600 C 323.485 211.600,324.756 211.075,324.208 208.890 C 323.750 207.064,322.992 206.826,317.580 206.813 C 311.167 206.796,311.600 207.367,311.600 198.934 C 311.600 191.130,311.409 190.601,308.949 191.595 M310.709 199.987 C 310.839 208.721,310.257 207.986,317.051 207.994 C 322.514 208.000,323.619 208.331,323.057 209.795 C 322.867 210.290,321.921 210.400,317.839 210.400 C 315.096 210.400,312.390 210.576,311.826 210.790 L 310.800 211.180 310.800 224.967 C 310.800 240.403,310.839 240.634,313.740 242.196 C 316.870 243.881,322.800 241.133,322.800 237.997 C 322.800 237.530,322.991 236.791,323.224 236.355 C 323.457 235.919,323.775 234.820,323.930 233.913 C 324.217 232.231,324.643 231.782,325.455 232.307 C 325.967 232.637,325.396 235.972,324.260 239.297 C 321.581 247.135,309.759 248.566,305.800 241.532 L 304.600 239.400 304.400 225.333 C 304.290 217.596,304.050 211.116,303.867 210.933 C 303.583 210.650,302.698 210.565,298.500 210.418 C 296.920 210.362,298.572 208.000,300.191 208.000 C 303.299 208.000,307.224 201.945,308.463 195.239 C 308.960 192.549,309.083 192.319,309.937 192.483 C 310.521 192.595,310.613 193.491,310.709 199.987 M222.143 206.691 C 218.173 207.053,218.278 210.135,222.277 210.616 C 226.504 211.123,226.369 210.591,226.386 226.838 C 226.402 242.890,226.651 241.945,222.301 242.361 L 219.800 242.600 219.679 244.050 C 219.454 246.744,219.671 246.801,230.129 246.794 C 239.774 246.788,239.986 246.758,240.742 245.323 C 241.661 243.577,240.618 242.400,238.151 242.400 C 234.289 242.400,234.311 242.474,234.475 230.000 C 234.633 217.957,234.651 217.878,237.963 214.515 C 242.551 209.858,249.580 210.955,252.048 216.713 C 252.724 218.289,252.800 219.594,252.800 229.639 L 252.800 240.812 251.500 241.604 C 250.698 242.093,249.488 242.398,248.343 242.399 C 246.381 242.400,246.000 242.759,246.000 244.604 C 246.000 246.699,246.488 246.800,256.567 246.800 C 266.761 246.800,267.200 246.699,267.200 244.349 C 267.200 242.903,266.472 242.400,264.378 242.400 C 262.957 242.400,262.267 242.168,261.458 241.419 L 260.400 240.438 260.398 228.919 C 260.396 213.548,259.244 210.056,253.278 207.327 C 250.808 206.197,243.390 206.050,242.330 207.110 C 242.061 207.379,241.598 207.600,241.303 207.600 C 240.547 207.600,236.816 210.421,235.324 212.120 C 233.825 213.827,233.600 213.685,233.599 211.033 C 233.598 209.713,233.319 208.544,232.804 207.700 L 232.012 206.400 227.906 206.470 C 225.648 206.508,223.054 206.608,222.143 206.691 M274.408 206.757 C 268.956 207.147,268.413 210.399,273.733 210.800 C 275.949 210.967,276.565 211.182,277.492 212.109 L 278.600 213.217 278.715 226.746 C 278.851 242.823,279.052 242.069,274.545 242.400 C 271.177 242.647,270.247 243.700,271.653 245.675 L 272.454 246.800 282.618 246.800 L 292.782 246.800 293.428 245.813 C 294.776 243.757,293.795 242.632,290.453 242.400 C 286.566 242.130,286.813 243.337,286.806 224.576 C 286.801 211.039,286.700 208.016,286.233 207.376 C 285.599 206.509,281.139 206.276,274.408 206.757 M232.162 209.071 C 232.513 210.100,232.800 211.506,232.800 212.195 C 232.800 215.073,233.766 215.239,236.095 212.758 C 240.579 207.982,245.296 206.412,251.173 207.739 C 258.088 209.301,259.247 212.276,259.573 229.290 C 259.837 243.111,259.677 242.589,263.815 243.104 C 265.863 243.359,266.218 243.526,266.326 244.286 C 266.507 245.560,265.805 245.642,255.800 245.513 L 247.000 245.400 247.000 244.402 C 247.000 243.483,247.189 243.380,249.360 243.109 C 254.108 242.516,254.212 242.157,253.913 227.435 C 253.703 217.089,253.707 217.106,251.297 213.733 C 249.417 211.100,243.845 209.809,241.000 211.347 C 240.340 211.703,239.589 211.996,239.332 211.998 C 238.610 212.001,234.793 216.473,234.549 217.599 C 234.431 218.150,234.078 219.397,233.767 220.371 C 233.345 221.690,233.200 224.520,233.200 231.449 C 233.200 242.539,233.222 242.600,237.400 243.110 C 239.614 243.381,239.800 243.481,239.800 244.402 L 239.800 245.400 230.200 245.400 L 220.600 245.400 220.473 244.300 C 220.353 243.253,220.430 243.199,222.073 243.177 C 227.582 243.105,227.689 242.773,227.526 226.200 C 227.374 210.769,227.004 209.600,222.269 209.600 C 220.791 209.600,219.456 208.576,220.455 208.209 C 220.897 208.047,226.432 207.530,230.662 207.256 C 231.350 207.211,231.654 207.579,232.162 209.071 M285.120 208.080 C 285.478 208.438,285.600 212.710,285.600 224.836 C 285.600 244.014,285.308 242.771,289.889 243.099 C 292.797 243.307,293.793 244.047,292.674 245.166 C 291.928 245.912,272.545 245.754,272.255 245.000 C 271.768 243.730,272.413 243.292,275.019 243.126 C 277.183 242.989,277.775 242.782,278.793 241.807 L 280.000 240.650 280.000 227.177 L 280.000 213.703 278.500 212.017 C 277.132 210.481,276.779 210.306,274.493 210.039 C 272.041 209.752,270.748 209.120,271.358 208.507 C 272.077 207.784,284.440 207.400,285.120 208.080 " stroke="none" fill="#e18e8f" fill-rule="evenodd"></path><path id="path4" d="M99.500 154.900 C 98.658 155.742,98.571 158.665,99.357 159.700 C 99.813 160.301,100.594 160.400,104.851 160.400 C 114.072 160.400,113.295 156.897,113.102 197.600 C 112.940 231.614,112.951 231.432,110.969 233.631 C 110.656 233.979,110.400 234.495,110.400 234.779 C 110.400 235.640,107.527 238.230,104.992 239.655 C 97.264 243.998,82.310 238.907,82.875 232.125 C 83.071 229.773,84.323 229.269,87.823 230.132 C 100.185 233.183,103.747 214.384,91.921 208.500 C 89.722 207.406,83.700 207.212,82.000 208.182 C 81.450 208.495,80.460 209.009,79.800 209.323 C 78.247 210.062,76.083 212.232,74.123 215.014 C 71.196 219.169,71.886 231.954,75.190 234.800 C 75.318 234.910,75.597 235.404,75.811 235.897 C 76.344 237.128,80.626 241.431,82.373 242.491 C 83.158 242.968,83.890 243.470,84.000 243.606 C 84.110 243.743,85.100 244.259,86.200 244.752 C 87.300 245.246,88.740 245.901,89.400 246.207 C 94.829 248.731,111.128 248.345,117.036 245.554 C 118.379 244.919,119.659 244.400,119.881 244.400 C 121.093 244.400,128.509 237.586,129.746 235.337 C 131.473 232.196,132.393 230.117,132.396 229.346 C 132.398 228.876,132.669 227.976,132.998 227.346 C 133.512 226.358,133.595 221.939,133.598 195.394 C 133.600 166.325,133.641 164.511,134.331 163.225 C 135.453 161.133,137.204 160.400,141.080 160.400 C 143.925 160.400,144.428 160.295,144.786 159.626 C 145.390 158.498,145.299 155.380,144.647 154.839 C 143.604 153.973,100.368 154.032,99.500 154.900 M143.918 157.330 L 144.037 159.491 140.008 159.685 C 132.325 160.055,132.800 157.796,132.800 193.981 C 132.800 214.350,132.661 224.183,132.354 225.494 C 131.529 229.019,130.301 232.592,129.548 233.662 C 129.137 234.246,128.800 234.844,128.800 234.990 C 128.800 235.137,128.575 235.495,128.300 235.787 C 128.025 236.078,127.350 236.893,126.800 237.598 C 126.250 238.303,124.630 239.759,123.200 240.833 C 121.770 241.907,120.390 242.962,120.134 243.177 C 119.878 243.392,119.162 243.695,118.544 243.850 C 117.925 244.005,116.245 244.681,114.810 245.352 L 112.200 246.572 102.600 246.586 L 93.000 246.600 90.400 245.470 C 88.970 244.848,87.440 244.237,87.000 244.113 C 84.233 243.328,78.946 238.810,76.284 234.956 C 74.309 232.095,72.269 224.762,72.953 222.979 C 73.084 222.637,73.372 221.227,73.593 219.846 C 75.995 204.809,98.400 204.875,98.400 219.919 C 98.400 226.489,94.181 230.059,87.528 229.118 C 79.891 228.038,79.847 236.366,87.472 239.763 C 88.313 240.137,89.451 240.688,90.001 240.986 C 95.174 243.789,105.034 242.118,109.265 237.722 C 114.166 232.630,114.403 230.583,114.392 193.577 C 114.381 157.804,114.927 159.936,105.692 159.600 L 100.200 159.400 100.076 157.670 C 99.871 154.834,98.521 154.991,122.266 155.085 L 143.800 155.169 143.918 157.330 " stroke="none" fill="#acd490" fill-rule="evenodd"></path></g></svg>